runtti_build.ufo
<glyph name="exclam" format="2">
  <advance width="312"/>
  <unicode hex="0021"/>
  <outline>
    <contour>
      <point x="205" y="-49" type="line"/>
      <point x="222" y="184" type="line"/>
      <point x="258" y="153" type="line"/>
      <point x="3" y="147" type="line"/>
      <point x="52" y="178" type="line"/>
      <point x="43" y="-45" type="line"/>
      <point x="5" y="0" type="line"/>
      <point x="227" y="-4" type="line"/>
    </contour>
    <contour>
      <point x="23" y="770" type="line"/>
      <point x="74" y="869" type="line"/>
      <point x="64" y="202" type="line"/>
      <point x="25" y="225" type="line"/>
      <point x="256" y="223" type="line"/>
      <point x="209" y="186" type="line"/>
      <point x="281" y="852" type="line"/>
      <point x="321" y="770" type="line"/>
    </contour>
  </outline>
</glyph>
<glyph name="quotesingle" format="2">
  <advance width="229"/>
  <unicode hex="0027"/>
  <outline>
    <contour>
      <point x="144" y="804" type="line"/>
      <point x="225" y="742" type="line"/>
      <point x="33" y="742" type="line"/>
      <point x="49" y="778" type="line"/>
      <point x="32" y="499" type="line"/>
      <point x="14" y="550" type="line"/>
      <point x="171" y="533" type="line"/>
      <point x="92" y="485" type="line"/>
      <point x="216" y="764" type="line"/>
      <point x="247" y="669" type="line"/>
    </contour>
  </outline>
</glyph>
<glyph name="parenleft" format="2">
  <advance width="278"/>
  <unicode hex="0028"/>
  <outline>
    <contour>
      <point x="-9" y="443" type="line"/>
      <point x="37" y="567" type="line"/>
      <point x="35" y="127" type="line"/>
      <point x="-9" y="238" type="line"/>
      <point x="183" y="-165" type="line"/>
      <point x="113" y="-144" type="line"/>
      <point x="293" y="-55" type="line"/>
      <point x="268" y="-105" type="line"/>
      <point x="89" y="234" type="line"/>
      <point x="118" y="127" type="line"/>
      <point x="132" y="561" type="line"/>
      <point x="77" y="434" type="line"/>
      <point x="276" y="767" type="line"/>
      <point x="301" y="713" type="line"/>
      <point x="109" y="823" type="line"/>
      <point x="196" y="831" type="line"/>
    </contour>
  </outline>
</glyph>
<glyph name="asterisk" format="2">
  <advance width="232"/>
  <unicode hex="002A"/>
  <outline>
    <contour>
      <point x="116" y="688" type="line"/>
      <point x="0" y="635" type="line"/>
      <point x="-3" y="665" type="line"/>
      <point x="67" y="553" type="line"/>
      <point x="14" y="571" type="line"/>
      <point x="116" y="639" type="line"/>
      <point x="233" y="692" type="line"/>
      <point x="235" y="663" type="line"/>
      <point x="165" y="775" type="line"/>
      <point x="218" y="757" type="line"/>
    </contour>
    <contour>
      <point x="116" y="688" type="line"/>
      <point x="16" y="759" type="line"/>
      <point x="69" y="775" type="line"/>
      <point x="-3" y="665" type="line"/>
      <point x="1" y="694" type="line"/>
      <point x="116" y="639" type="line"/>
      <point x="216" y="569" type="line"/>
      <point x="163" y="553" type="line"/>
      <point x="235" y="663" type="line"/>
      <point x="231" y="634" type="line"/>
    </contour>
    <contour>
      <point x="93" y="675" type="line"/>
      <point x="78" y="550" type="line"/>
      <point x="52" y="563" type="line"/>
      <point x="184" y="564" type="line"/>
      <point x="144" y="536" type="line"/>
      <point x="136" y="653" type="line"/>
      <point x="151" y="777" type="line"/>
      <point x="177" y="764" type="line"/>
      <point x="44" y="763" type="line"/>
      <point x="86" y="799" type="line"/>
    </contour>
  </outline>
</glyph>
<glyph name="comma" format="2">
  <advance width="245"/>
  <unicode hex="002C"/>
  <outline>
    <contour>
      <point x="151" y="2" type="line"/>
      <point x="104" y="26" type="line"/>
      <point x="95" y="-131" type="line"/>
      <point x="70" y="-69" type="line"/>
      <point x="186" y="-84" type="line"/>
      <point x="144" y="-137" type="line"/>
      <point x="218" y="172" type="line"/>
      <point x="257" y="77" type="line"/>
      <point x="154" y="212" type="line"/>
      <point x="210" y="151" type="line"/>
      <point x="-6" y="150" type="line"/>
      <point x="42" y="181" type="line"/>
      <point x="33" y="-42" type="line"/>
      <point x="-5" y="-2" type="line"/>
    </contour>
  </outline>
</glyph>
<glyph name="hyphen" format="2">
  <advance width="352"/>
  <unicode hex="002D"/>
  <outline>
    <contour>
      <point x="31" y="199" type="line"/>
      <point x="-41" y="261" type="line"/>
      <point x="230" y="266" type="line"/>
      <point x="394" y="263" type="line"/>
      <point x="308" y="211" type="line"/>
      <point x="320" y="397" type="line"/>
      <point x="401" y="351" type="line"/>
      <point x="191" y="350" type="line"/>
      <point x="-52" y="355" type="line"/>
      <point x="44" y="397" type="line"/>
    </contour>
  </outline>
</glyph>
<glyph name="period" format="2">
  <advance width="246"/>
  <unicode hex="002E"/>
  <outline>
    <contour>
      <point x="181" y="-47" type="line"/>
      <point x="216" y="186" type="line"/>
      <point x="248" y="155" type="line"/>
      <point x="-6" y="149" type="line"/>
      <point x="42" y="180" type="line"/>
      <point x="33" y="-43" type="line"/>
      <point x="-5" y="2" type="line"/>
      <point x="217" y="-2" type="line"/>
    </contour>
  </outline>
</glyph>
<glyph name="slash" format="2">
  <advance width="331"/>
  <unicode hex="002F"/>
  <outline>
    <contour>
      <point x="148" y="793" type="line"/>
      <point x="229" y="834" type="line"/>
      <point x="45" y="100" type="line"/>
      <point x="156" y="521" type="line"/>
      <point x="-47" y="-214" type="line"/>
      <point x="-91" y="-164" type="line"/>
      <point x="119" y="-164" type="line"/>
      <point x="57" y="-214" type="line"/>
      <point x="241" y="521" type="line"/>
      <point x="131" y="100" type="line"/>
      <point x="333" y="834" type="line"/>
      <point x="380" y="793" type="line"/>
    </contour>
  </outline>
</glyph>
<glyph name="one" format="2">
  <advance width="375"/>
  <unicode hex="0031"/>
  <outline>
    <contour>
      <point x="132" y="612" type="line"/>
      <point x="188" y="578" type="line"/>
      <point x="158" y="622" type="line"/>
      <point x="151" y="566" type="line"/>
      <point x="86" y="-83" type="line"/>
      <point x="63" y="0" type="line"/>
      <point x="343" y="0" type="line"/>
      <point x="294" y="-83" type="line"/>
      <point x="348" y="844" type="line"/>
      <point x="372" y="790" type="line"/>
      <point x="129" y="793" type="line"/>
      <point x="271" y="811" type="line"/>
      <point x="-38" y="714" type="line"/>
      <point x="-3" y="786" type="line"/>
      <point x="90" y="507" type="line"/>
      <point x="-6" y="527" type="line"/>
      <point x="197" y="622" type="line"/>
    </contour>
  </outline>
</glyph>
<glyph name="three" format="2">
  <advance width="576"/>
  <unicode hex="0033"/>
  <outline>
    <contour>
      <point x="128" y="358" type="line"/>
      <point x="403" y="266" type="line"/>
      <point x="336" y="396" type="line"/>
      <point x="318" y="115" type="line"/>
      <point x="356" y="189" type="line"/>
      <point x="238" y="128" type="line"/>
      <point x="338" y="143" type="line"/>
      <point x="32" y="229" type="line"/>
      <point x="90" y="322" type="line"/>
      <point x="-16" y="-46" type="line"/>
      <point x="-35" y="32" type="line"/>
      <point x="338" y="-28" type="line"/>
      <point x="269" y="-28" type="line"/>
      <point x="634" y="137" type="line"/>
      <point x="491" y="-24" type="line"/>
      <point x="545" y="501" type="line"/>
      <point x="618" y="344" type="line"/>
      <point x="363" y="437" type="line"/>
      <point x="351" y="416" type="line"/>
      <point x="576" y="525" type="line"/>
      <point x="498" y="348" type="line"/>
      <point x="549" y="798" type="line"/>
      <point x="653" y="631" type="line"/>
      <point x="243" y="822" type="line"/>
      <point x="337" y="819" type="line"/>
      <point x="-5" y="777" type="line"/>
      <point x="14" y="855" type="line"/>
      <point x="120" y="487" type="line"/>
      <point x="62" y="588" type="line"/>
      <point x="254" y="631" type="line"/>
      <point x="187" y="647" type="line"/>
      <point x="351" y="578" type="line"/>
      <point x="333" y="628" type="line"/>
      <point x="326" y="392" type="line"/>
      <point x="392" y="533" type="line"/>
      <point x="130" y="398" type="line"/>
      <point x="182" y="484" type="line"/>
      <point x="166" y="295" type="line"/>
    </contour>
  </outline>
</glyph>
<glyph name="six" format="2">
  <advance width="573"/>
  <unicode hex="0036"/>
  <outline>
    <contour>
      <point x="296" y="520" type="line"/>
      <point x="348" y="555" type="line"/>
      <point x="177" y="360" type="line"/>
      <point x="171" y="382" type="line"/>
      <point x="433" y="301" type="line"/>
      <point x="350" y="347" type="line"/>
      <point x="344" y="77" type="line"/>
      <point x="373" y="197" type="line"/>
      <point x="293" y="138" type="line"/>
      <point x="362" y="150" type="line"/>
      <point x="139" y="208" type="line"/>
      <point x="220" y="120" type="line"/>
      <point x="229" y="378" type="line"/>
      <point x="299" y="438" type="line"/>
      <point x="300" y="417" type="line"/>
      <point x="209" y="445" type="line"/>
      <point x="235" y="393" type="line"/>
      <point x="254" y="634" type="line"/>
      <point x="181" y="561" type="line"/>
      <point x="331" y="644" type="line"/>
      <point x="258" y="622" type="line"/>
      <point x="536" y="538" type="line"/>
      <point x="475" y="482" type="line"/>
      <point x="560" y="830" type="line"/>
      <point x="562" y="723" type="line"/>
      <point x="242" y="766" type="line"/>
      <point x="377" y="807" type="line"/>
      <point x="-80" y="573" type="line"/>
      <point x="76" y="742" type="line"/>
      <point x="26" y="14" type="line"/>
      <point x="-96" y="149" type="line"/>
      <point x="370" y="-47" type="line"/>
      <point x="245" y="-54" type="line"/>
      <point x="639" y="167" type="line"/>
      <point x="491" y="-46" type="line"/>
      <point x="549" y="438" type="line"/>
      <point x="636" y="372" type="line"/>
    </contour>
  </outline>
</glyph>
<glyph name="seven" format="2">
  <advance width="457"/>
  <unicode hex="0037"/>
  <outline>
    <contour>
      <point x="551" y="595" type="line"/>
      <point x="347" y="813" type="line"/>
      <point x="525" y="742" type="line"/>
      <point x="-38" y="745" type="line"/>
      <point x="32" y="791" type="line"/>
      <point x="14" y="515" type="line"/>
      <point x="-64" y="556" type="line"/>
      <point x="396" y="597" type="line"/>
      <point x="224" y="641" type="line"/>
      <point x="316" y="522" type="line"/>
      <point x="307" y="659" type="line"/>
      <point x="253" y="530" type="line"/>
      <point x="46" y="-22" type="line"/>
      <point x="2" y="0" type="line"/>
      <point x="300" y="0" type="line"/>
      <point x="249" y="-39" type="line"/>
      <point x="497" y="777" type="line"/>
    </contour>
  </outline>
</glyph>
<glyph name="nine" format="2">
  <advance width="594"/>
  <unicode hex="0039"/>
  <outline>
    <contour>
      <point x="287" y="228" type="line"/>
      <point x="231" y="191" type="line"/>
      <point x="413" y="399" type="line"/>
      <point x="420" y="375" type="line"/>
      <point x="143" y="461" type="line"/>
      <point x="231" y="420" type="line"/>
      <point x="238" y="708" type="line"/>
      <point x="205" y="590" type="line"/>
      <point x="294" y="647" type="line"/>
      <point x="218" y="630" type="line"/>
      <point x="456" y="568" type="line"/>
      <point x="368" y="662" type="line"/>
      <point x="354" y="387" type="line"/>
      <point x="282" y="324" type="line"/>
      <point x="280" y="332" type="line"/>
      <point x="377" y="302" type="line"/>
      <point x="350" y="371" type="line"/>
      <point x="320" y="115" type="line"/>
      <point x="402" y="221" type="line"/>
      <point x="241" y="120" type="line"/>
      <point x="317" y="134" type="line"/>
      <point x="23" y="206" type="line"/>
      <point x="81" y="268" type="line"/>
      <point x="5" y="-105" type="line"/>
      <point x="-5" y="10" type="line"/>
      <point x="334" y="-22" type="line"/>
      <point x="219" y="-75" type="line"/>
      <point x="686" y="208" type="line"/>
      <point x="511" y="0" type="line"/>
      <point x="576" y="775" type="line"/>
      <point x="706" y="631" type="line"/>
      <point x="210" y="840" type="line"/>
      <point x="343" y="848" type="line"/>
      <point x="-77" y="612" type="line"/>
      <point x="75" y="839" type="line"/>
      <point x="30" y="324" type="line"/>
      <point x="-73" y="386" type="line"/>
    </contour>
  </outline>
</glyph>
<glyph name="question" format="2">
  <advance width="435"/>
  <unicode hex="003F"/>
  <outline>
    <contour>
      <point x="51" y="196" type="line"/>
      <point x="34" y="-37" type="line"/>
      <point x="-2" y="-6" type="line"/>
      <point x="253" y="0" type="line"/>
      <point x="204" y="-31" type="line"/>
      <point x="213" y="192" type="line"/>
      <point x="251" y="147" type="line"/>
      <point x="29" y="151" type="line"/>
    </contour>
    <contour>
      <point x="283" y="663" type="line"/>
      <point x="256" y="405" type="line"/>
      <point x="314" y="504" type="line"/>
      <point x="202" y="437" type="line"/>
      <point x="325" y="463" type="line"/>
      <point x="58" y="485" type="line"/>
      <point x="200" y="513" type="line"/>
      <point x="11" y="397" type="line"/>
      <point x="65" y="484" type="line"/>
      <point x="55" y="201" type="line"/>
      <point x="15" y="225" type="line"/>
      <point x="246" y="222" type="line"/>
      <point x="205" y="195" type="line"/>
      <point x="223" y="393" type="line"/>
      <point x="191" y="316" type="line"/>
      <point x="257" y="362" type="line"/>
      <point x="173" y="351" type="line"/>
      <point x="401" y="316" type="line"/>
      <point x="218" y="289" type="line"/>
      <point x="500" y="473" type="line"/>
      <point x="409" y="299" type="line"/>
      <point x="458" y="755" type="line"/>
      <point x="492" y="633" type="line"/>
      <point x="202" y="803" type="line"/>
      <point x="311" y="791" type="line"/>
      <point x="-31" y="774" type="line"/>
      <point x="9" y="813" type="line"/>
      <point x="37" y="540" type="line"/>
      <point x="8" y="591" type="line"/>
      <point x="319" y="626" type="line"/>
      <point x="194" y="633" type="line"/>
      <point x="300" y="547" type="line"/>
    </contour>
  </outline>
</glyph>
<glyph name="at" format="2">
  <advance width="932"/>
  <unicode hex="0040"/>
  <outline>
    <contour>
      <point x="826" y="-146" type="line"/>
      <point x="794" y="-195" type="line"/>
      <point x="741" y="5" type="line"/>
      <point x="782" y="-46" type="line"/>
      <point x="413" y="-141" type="line"/>
      <point x="528" y="-128" type="line"/>
      <point x="103" y="44" type="line"/>
      <point x="153" y="-8" type="line"/>
      <point x="157" y="594" type="line"/>
      <point x="112" y="531" type="line"/>
      <point x="446" y="699" type="line"/>
      <point x="353" y="675" type="line"/>
      <point x="846" y="525" type="line"/>
      <point x="803" y="564" type="line"/>
      <point x="776" y="133" type="line"/>
      <point x="804" y="178" type="line"/>
      <point x="693" y="121" type="line"/>
      <point x="747" y="135" type="line"/>
      <point x="646" y="190" type="line"/>
      <point x="666" y="146" type="line"/>
      <point x="705" y="547" type="line"/>
      <point x="724" y="464" type="line"/>
      <point x="343" y="567" type="line"/>
      <point x="473" y="577" type="line"/>
      <point x="177" y="436" type="line"/>
      <point x="268" y="549" type="line"/>
      <point x="259" y="91" type="line"/>
      <point x="215" y="121" type="line"/>
      <point x="531" y="9" type="line"/>
      <point x="503" y="8" type="line"/>
      <point x="638" y="170" type="line"/>
      <point x="622" y="154" type="line"/>
      <point x="370" y="191" type="line"/>
      <point x="421" y="146" type="line"/>
      <point x="403" y="453" type="line"/>
      <point x="380" y="375" type="line"/>
      <point x="457" y="417" type="line"/>
      <point x="353" y="405" type="line"/>
      <point x="594" y="370" type="line"/>
      <point x="538" y="406" type="line"/>
      <point x="519" y="45" type="line"/>
      <point x="538" y="131" type="line"/>
      <point x="669" y="3" type="line"/>
      <point x="636" y="3" type="line"/>
      <point x="874" y="104" type="line"/>
      <point x="851" y="38" type="line"/>
      <point x="923" y="694" type="line"/>
      <point x="1025" y="551" type="line"/>
      <point x="304" y="808" type="line"/>
      <point x="507" y="820" type="line"/>
      <point x="-79" y="545" type="line"/>
      <point x="76" y="711" type="line"/>
      <point x="36" y="-142" type="line"/>
      <point x="-93" y="-2" type="line"/>
      <point x="544" y="-229" type="line"/>
      <point x="386" y="-228" type="line"/>
    </contour>
  </outline>
</glyph>
<glyph name="B" format="2">
  <advance width="625"/>
  <unicode hex="0042"/>
  <outline>
    <contour>
      <point x="523" y="575" type="line"/>
      <point x="193" y="365" type="line"/>
      <point x="208" y="405" type="line"/>
      <point x="250" y="266" type="line"/>
      <point x="208" y="275" type="line"/>
      <point x="292" y="324" type="line"/>
      <point x="396" y="392" type="line"/>
      <point x="631" y="529" type="line"/>
      <point x="541" y="419" type="line"/>
      <point x="610" y="699" type="line"/>
      <point x="692" y="623" type="line"/>
      <point x="272" y="784" type="line"/>
      <point x="339" y="786" type="line"/>
      <point x="170" y="582" type="line"/>
      <point x="157" y="608" type="line"/>
      <point x="486" y="545" type="line"/>
      <point x="408" y="637" type="line"/>
      <point x="399" y="436" type="line"/>
    </contour>
    <contour>
      <point x="42" y="-40" type="line"/>
      <point x="17" y="49" type="line"/>
      <point x="436" y="-38" type="line"/>
      <point x="298" y="-59" type="line"/>
      <point x="692" y="162" type="line"/>
      <point x="544" y="-49" type="line"/>
      <point x="597" y="419" type="line"/>
      <point x="685" y="353" type="line"/>
      <point x="388" y="447" type="line"/>
      <point x="459" y="458" type="line"/>
      <point x="247" y="315" type="line"/>
      <point x="247" y="319" type="line"/>
      <point x="483" y="267" type="line"/>
      <point x="396" y="329" type="line"/>
      <point x="394" y="74" type="line"/>
      <point x="425" y="189" type="line"/>
      <point x="346" y="130" type="line"/>
      <point x="480" y="149" type="line"/>
      <point x="208" y="158" type="line"/>
      <point x="248" y="109" type="line"/>
      <point x="268" y="720" type="line"/>
      <point x="319" y="660" type="line"/>
      <point x="71" y="784" type="line"/>
      <point x="132" y="807" type="line"/>
      <point x="12" y="589" type="line"/>
      <point x="-19" y="611" type="line"/>
      <point x="156" y="563" type="line"/>
      <point x="99" y="648" type="line"/>
    </contour>
  </outline>
</glyph>
<glyph name="C" format="2">
  <advance width="552"/>
  <unicode hex="0043"/>
  <anchor x="260" y="0" name="bottom"/>
  <anchor x="320" y="742" name="top"/>
  <outline>
    <contour>
      <point x="531" y="547" type="line"/>
      <point x="487" y="515" type="line"/>
      <point x="542" y="786" type="line"/>
      <point x="610" y="730" type="line"/>
      <point x="217" y="766" type="line"/>
      <point x="395" y="804" type="line"/>
      <point x="-52" y="588" type="line"/>
      <point x="94" y="747" type="line"/>
      <point x="30" y="14" type="line"/>
      <point x="-17" y="126" type="line"/>
      <point x="357" y="-46" type="line"/>
      <point x="156" y="-12" type="line"/>
      <point x="552" y="-1" type="line"/>
      <point x="491" y="-36" type="line"/>
      <point x="483" y="239" type="line"/>
      <point x="522" y="183" type="line"/>
      <point x="283" y="155" type="line"/>
      <point x="417" y="146" type="line"/>
      <point x="206" y="199" type="line"/>
      <point x="233" y="132" type="line"/>
      <point x="258" y="598" type="line"/>
      <point x="210" y="550" type="line"/>
      <point x="325" y="615" type="line"/>
      <point x="239" y="596" type="line"/>
    </contour>
  </outline>
</glyph>
<glyph name="D" format="2">
  <advance width="642"/>
  <unicode hex="0044"/>
  <anchor x="345" y="742" name="top"/>
  <outline>
    <contour>
      <point x="263" y="718" type="line"/>
      <point x="169" y="619" type="line"/>
      <point x="197" y="526" type="line"/>
      <point x="224" y="586" type="line"/>
      <point x="157" y="552" type="line"/>
      <point x="64" y="495" type="line"/>
      <point x="84" y="540" type="line"/>
      <point x="36" y="-40" type="line"/>
      <point x="10" y="49" type="line"/>
      <point x="448" y="-38" type="line"/>
      <point x="310" y="-59" type="line"/>
      <point x="704" y="162" type="line"/>
      <point x="556" y="-49" type="line"/>
      <point x="638" y="809" type="line"/>
      <point x="667" y="573" type="line"/>
      <point x="406" y="772" type="line"/>
      <point x="602" y="742" type="line"/>
      <point x="-39" y="745" type="line"/>
      <point x="31" y="791" type="line"/>
      <point x="13" y="515" type="line"/>
      <point x="-65" y="552" type="line"/>
      <point x="473" y="592" type="line"/>
      <point x="352" y="609" type="line"/>
      <point x="447" y="531" type="line"/>
      <point x="425" y="643" type="line"/>
      <point x="407" y="74" type="line"/>
      <point x="438" y="189" type="line"/>
      <point x="358" y="130" type="line"/>
      <point x="492" y="149" type="line"/>
      <point x="201" y="158" type="line"/>
      <point x="241" y="109" type="line"/>
    </contour>
  </outline>
</glyph>
<glyph name="E" format="2">
  <advance width="535"/>
  <unicode hex="0045"/>
  <anchor x="447" y="0" name="ogonek"/>
  <anchor x="309" y="790" name="top"/>
  <outline>
    <contour>
      <point x="231" y="467" type="line"/>
      <point x="218" y="332" type="line"/>
      <point x="474" y="329" type="line"/>
      <point x="441" y="295" type="line"/>
      <point x="457" y="545" type="line"/>
      <point x="488" y="485" type="line"/>
    </contour>
    <contour>
      <point x="264" y="682" type="line"/>
      <point x="207" y="576" type="line"/>
      <point x="330" y="645" type="line"/>
      <point x="238" y="620" type="line"/>
      <point x="555" y="592" type="line"/>
      <point x="508" y="571" type="line"/>
      <point x="567" y="860" type="line"/>
      <point x="639" y="790" type="line"/>
      <point x="215" y="801" type="line"/>
      <point x="404" y="861" type="line"/>
      <point x="-72" y="631" type="line"/>
      <point x="86" y="828" type="line"/>
      <point x="25" y="-45" type="line"/>
      <point x="1" y="0" type="line"/>
      <point x="581" y="-2" type="line"/>
      <point x="504" y="-52" type="line"/>
      <point x="523" y="242" type="line"/>
      <point x="609" y="196" type="line"/>
      <point x="188" y="168" type="line"/>
      <point x="230" y="131" type="line"/>
      <point x="244" y="350" type="line"/>
      <point x="249" y="446" type="line"/>
    </contour>
  </outline>
</glyph>
<glyph name="F" format="2">
  <advance width="544"/>
  <unicode hex="0046"/>
  <outline>
    <contour>
      <point x="230" y="429" type="line"/>
      <point x="217" y="294" type="line"/>
      <point x="484" y="291" type="line"/>
      <point x="451" y="257" type="line"/>
      <point x="467" y="507" type="line"/>
      <point x="498" y="447" type="line"/>
    </contour>
    <contour>
      <point x="271" y="684" type="line"/>
      <point x="217" y="576" type="line"/>
      <point x="340" y="645" type="line"/>
      <point x="248" y="627" type="line"/>
      <point x="564" y="588" type="line"/>
      <point x="517" y="568" type="line"/>
      <point x="576" y="857" type="line"/>
      <point x="648" y="787" type="line"/>
      <point x="225" y="806" type="line"/>
      <point x="414" y="856" type="line"/>
      <point x="-62" y="626" type="line"/>
      <point x="95" y="746" type="line"/>
      <point x="21" y="-83" type="line"/>
      <point x="0" y="0" type="line"/>
      <point x="280" y="0" type="line"/>
      <point x="237" y="-83" type="line"/>
      <point x="252" y="336" type="line"/>
    </contour>
  </outline>
</glyph>
<glyph name="G" format="2">
  <advance width="608"/>
  <unicode hex="0047"/>
  <anchor x="301" y="0" name="bottom"/>
  <anchor x="338" y="742" name="top"/>
  <outline>
    <contour>
      <point x="394" y="82" type="line"/>
      <point x="536" y="186" type="line"/>
      <point x="297" y="132" type="line"/>
      <point x="431" y="131" type="line"/>
      <point x="201" y="197" type="line"/>
      <point x="228" y="132" type="line"/>
      <point x="253" y="598" type="line"/>
      <point x="205" y="555" type="line"/>
      <point x="320" y="620" type="line"/>
      <point x="234" y="604" type="line"/>
      <point x="565" y="541" type="line"/>
      <point x="521" y="505" type="line"/>
      <point x="577" y="777" type="line"/>
      <point x="644" y="720" type="line"/>
      <point x="212" y="770" type="line"/>
      <point x="390" y="808" type="line"/>
      <point x="-57" y="588" type="line"/>
      <point x="89" y="747" type="line"/>
      <point x="25" y="14" type="line"/>
      <point x="-22" y="124" type="line"/>
      <point x="371" y="-54" type="line"/>
      <point x="170" y="-46" type="line"/>
      <point x="584" y="38" type="line"/>
      <point x="545" y="5" type="line"/>
      <point x="588" y="502" type="line"/>
      <point x="628" y="372" type="line"/>
      <point x="521" y="503" type="line"/>
      <point x="614" y="452" type="line"/>
      <point x="271" y="454" type="line"/>
      <point x="341" y="500" type="line"/>
      <point x="323" y="224" type="line"/>
      <point x="245" y="267" type="line"/>
      <point x="454" y="285" type="line"/>
      <point x="406" y="363" type="line"/>
    </contour>
  </outline>
</glyph>
<glyph name="I" format="2">
  <advance width="326"/>
  <unicode hex="0049"/>
  <anchor x="168" y="0" name="ogonek"/>
  <anchor x="195" y="790" name="top"/>
  <outline>
    <contour>
      <point x="247" y="-83" type="line"/>
      <point x="301" y="844" type="line"/>
      <point x="344" y="705" type="line"/>
      <point x="230" y="845" type="line"/>
      <point x="329" y="790" type="line"/>
      <point x="-36" y="793" type="line"/>
      <point x="38" y="842" type="line"/>
      <point x="19" y="548" type="line"/>
      <point x="-64" y="593" type="line"/>
      <point x="158" y="613" type="line"/>
      <point x="107" y="696" type="line"/>
      <point x="37" y="-83" type="line"/>
      <point x="16" y="0" type="line"/>
      <point x="296" y="0" type="line"/>
    </contour>
  </outline>
</glyph>
<glyph name="J" format="2">
  <advance width="482"/>
  <unicode hex="004A"/>
  <anchor x="275" y="742" name="top"/>
  <outline>
    <contour>
      <point x="-5" y="211" type="line"/>
      <point x="32" y="239" type="line"/>
      <point x="-27" y="-37" type="line"/>
      <point x="-74" y="37" type="line"/>
      <point x="360" y="-35" type="line"/>
      <point x="204" y="-43" type="line"/>
      <point x="546" y="155" type="line"/>
      <point x="411" y="36" type="line"/>
      <point x="465" y="793" type="line"/>
      <point x="505" y="662" type="line"/>
      <point x="398" y="793" type="line"/>
      <point x="491" y="742" type="line"/>
      <point x="12" y="745" type="line"/>
      <point x="82" y="791" type="line"/>
      <point x="64" y="515" type="line"/>
      <point x="-14" y="557" type="line"/>
      <point x="334" y="581" type="line"/>
      <point x="266" y="654" type="line"/>
      <point x="242" y="101" type="line"/>
      <point x="339" y="223" type="line"/>
      <point x="190" y="139" type="line"/>
      <point x="265" y="139" type="line"/>
    </contour>
  </outline>
</glyph>
<glyph name="K" format="2">
  <advance width="656"/>
  <unicode hex="004B"/>
  <anchor x="305" y="0" name="bottom"/>
  <anchor x="331" y="742" name="top"/>
  <outline>
    <contour>
      <point x="232" y="-78" type="line"/>
      <point x="283" y="793" type="line"/>
      <point x="323" y="662" type="line"/>
      <point x="216" y="793" type="line"/>
      <point x="309" y="742" type="line"/>
      <point x="-34" y="745" type="line"/>
      <point x="36" y="791" type="line"/>
      <point x="18" y="515" type="line"/>
      <point x="-60" y="557" type="line"/>
      <point x="148" y="576" type="line"/>
      <point x="100" y="654" type="line"/>
      <point x="35" y="-78" type="line"/>
      <point x="15" y="0" type="line"/>
      <point x="278" y="0" type="line"/>
    </contour>
    <contour>
      <point x="657" y="567" type="line"/>
      <point x="608" y="809" type="line"/>
      <point x="657" y="742" type="line"/>
      <point x="244" y="746" type="line"/>
      <point x="342" y="805" type="line"/>
      <point x="318" y="449" type="line"/>
      <point x="208" y="554" type="line"/>
      <point x="481" y="577" type="line"/>
      <point x="482" y="625" type="line"/>
      <point x="139" y="268" type="line"/>
      <point x="151" y="346" type="line"/>
      <point x="269" y="197" type="line"/>
      <point x="191" y="206" type="line"/>
      <point x="665" y="666" type="line"/>
    </contour>
    <contour>
      <point x="349" y="0" type="line"/>
      <point x="693" y="-3" type="line"/>
      <point x="623" y="-49" type="line"/>
      <point x="641" y="227" type="line"/>
      <point x="719" y="185" type="line"/>
      <point x="472" y="166" type="line"/>
      <point x="579" y="133" type="line"/>
      <point x="411" y="470" type="line"/>
      <point x="459" y="468" type="line"/>
      <point x="239" y="342" type="line"/>
      <point x="268" y="380" type="line"/>
      <point x="426" y="-50" type="line"/>
    </contour>
  </outline>
</glyph>
<glyph name="L" format="2">
  <advance width="482"/>
  <unicode hex="004C"/>
  <anchor x="234" y="0" name="bottom"/>
  <anchor x="284" y="742" name="top"/>
  <outline>
    <contour>
      <point x="247" y="640" type="line"/>
      <point x="192" y="536" type="line"/>
      <point x="308" y="601" type="line"/>
      <point x="222" y="581" type="line"/>
      <point x="374" y="560" type="line"/>
      <point x="330" y="549" type="line"/>
      <point x="394" y="818" type="line"/>
      <point x="460" y="742" type="line"/>
      <point x="201" y="749" type="line"/>
      <point x="378" y="808" type="line"/>
      <point x="-69" y="593" type="line"/>
      <point x="80" y="777" type="line"/>
      <point x="22" y="-42" type="line"/>
      <point x="0" y="0" type="line"/>
      <point x="522" y="-2" type="line"/>
      <point x="450" y="-49" type="line"/>
      <point x="468" y="227" type="line"/>
      <point x="548" y="184" type="line"/>
      <point x="176" y="158" type="line"/>
      <point x="215" y="123" type="line"/>
    </contour>
  </outline>
</glyph>
<glyph name="M" format="2">
  <advance width="757"/>
  <unicode hex="004D"/>
  <anchor x="430" y="742" name="top"/>
  <outline>
    <contour>
      <point x="514" y="742" type="line"/>
      <point x="576" y="761" type="line"/>
      <point x="389" y="369" type="line"/>
      <point x="429" y="369" type="line"/>
      <point x="285" y="761" type="line"/>
      <point x="356" y="742" type="line"/>
      <point x="-34" y="745" type="line"/>
      <point x="36" y="791" type="line"/>
      <point x="18" y="515" type="line"/>
      <point x="-60" y="557" type="line"/>
      <point x="148" y="576" type="line"/>
      <point x="100" y="654" type="line"/>
      <point x="38" y="-78" type="line"/>
      <point x="15" y="0" type="line"/>
      <point x="278" y="0" type="line"/>
      <point x="234" y="-78" type="line"/>
      <point x="255" y="485" type="line"/>
      <point x="228" y="452" type="line"/>
      <point x="285" y="452" type="line"/>
      <point x="248" y="475" type="line"/>
      <point x="272" y="409" type="line"/>
      <point x="393" y="110" type="line"/>
      <point x="324" y="201" type="line"/>
      <point x="458" y="201" type="line"/>
      <point x="366" y="111" type="line"/>
      <point x="525" y="409" type="line"/>
      <point x="560" y="482" type="line"/>
      <point x="524" y="452" type="line"/>
      <point x="581" y="452" type="line"/>
      <point x="551" y="485" type="line"/>
      <point x="499" y="-78" type="line"/>
      <point x="457" y="0" type="line"/>
      <point x="720" y="0" type="line"/>
      <point x="693" y="-78" type="line"/>
      <point x="731" y="774" type="line"/>
      <point x="779" y="742" type="line"/>
    </contour>
  </outline>
</glyph>
<glyph name="N" format="2">
  <advance width="697"/>
  <unicode hex="004E"/>
  <anchor x="325" y="0" name="bottom"/>
  <anchor x="415" y="742" name="top"/>
  <outline>
    <contour>
      <point x="428" y="299" type="line"/>
      <point x="472" y="259" type="line"/>
      <point x="444" y="364" type="line"/>
      <point x="290" y="784" type="line"/>
      <point x="356" y="742" type="line"/>
      <point x="-34" y="745" type="line"/>
      <point x="36" y="791" type="line"/>
      <point x="18" y="515" type="line"/>
      <point x="-60" y="557" type="line"/>
      <point x="148" y="576" type="line"/>
      <point x="100" y="654" type="line"/>
      <point x="38" y="-78" type="line"/>
      <point x="15" y="0" type="line"/>
      <point x="278" y="0" type="line"/>
      <point x="234" y="-78" type="line"/>
      <point x="255" y="485" type="line"/>
      <point x="228" y="452" type="line"/>
      <point x="285" y="452" type="line"/>
      <point x="248" y="475" type="line"/>
      <point x="272" y="409" type="line"/>
      <point x="467" y="-51" type="line"/>
      <point x="408" y="0" type="line"/>
      <point x="635" y="0" type="line"/>
      <point x="602" y="-78" type="line"/>
      <point x="674" y="793" type="line"/>
      <point x="693" y="742" type="line"/>
      <point x="430" y="742" type="line"/>
      <point x="477" y="824" type="line"/>
      <point x="463" y="267" type="line"/>
      <point x="491" y="299" type="line"/>
    </contour>
  </outline>
</glyph>
<glyph name="O" format="2">
  <advance width="668"/>
  <unicode hex="004F"/>
  <anchor x="340" y="742" name="top"/>
  <outline>
    <contour>
      <point x="65" y="746" type="line"/>
      <point x="34" y="10" type="line"/>
      <point x="-87" y="145" type="line"/>
      <point x="460" y="-52" type="line"/>
      <point x="304" y="-60" type="line"/>
      <point x="734" y="146" type="line"/>
      <point x="571" y="-4" type="line"/>
      <point x="649" y="731" type="line"/>
      <point x="733" y="602" type="line"/>
      <point x="193" y="801" type="line"/>
      <point x="383" y="812" type="line"/>
      <point x="-74" y="577" type="line"/>
    </contour>
    <contour>
      <point x="197" y="593" type="line"/>
      <point x="539" y="513" type="line"/>
      <point x="434" y="592" type="line"/>
      <point x="420" y="106" type="line"/>
      <point x="491" y="228" type="line"/>
      <point x="342" y="144" type="line"/>
      <point x="452" y="163" type="line"/>
      <point x="148" y="225" type="line"/>
      <point x="240" y="116" type="line"/>
      <point x="226" y="638" type="line"/>
      <point x="157" y="525" type="line"/>
      <point x="306" y="608" type="line"/>
    </contour>
  </outline>
</glyph>
<glyph name="P" format="2">
  <advance width="628"/>
  <unicode hex="0050"/>
  <outline>
    <contour>
      <point x="40" y="-38" type="line"/>
      <point x="-1" y="0" type="line"/>
      <point x="277" y="0" type="line"/>
      <point x="246" y="-38" type="line"/>
      <point x="248" y="232" type="line"/>
      <point x="207" y="146" type="line"/>
      <point x="300" y="197" type="line"/>
      <point x="290" y="177" type="line"/>
      <point x="252" y="305" type="line"/>
      <point x="267" y="720" type="line"/>
      <point x="319" y="660" type="line"/>
      <point x="71" y="784" type="line"/>
      <point x="132" y="807" type="line"/>
      <point x="12" y="589" type="line"/>
      <point x="-19" y="611" type="line"/>
      <point x="156" y="563" type="line"/>
      <point x="99" y="648" type="line"/>
    </contour>
    <contour>
      <point x="205" y="320" type="line"/>
      <point x="160" y="203" type="line"/>
      <point x="469" y="96" type="line"/>
      <point x="254" y="71" type="line"/>
      <point x="653" y="259" type="line"/>
      <point x="567" y="132" type="line"/>
      <point x="617" y="729" type="line"/>
      <point x="671" y="673" type="line"/>
      <point x="275" y="781" type="line"/>
      <point x="346" y="780" type="line"/>
      <point x="175" y="590" type="line"/>
      <point x="160" y="600" type="line"/>
      <point x="472" y="569" type="line"/>
      <point x="415" y="639" type="line"/>
      <point x="411" y="255" type="line"/>
      <point x="445" y="340" type="line"/>
      <point x="367" y="279" type="line"/>
      <point x="472" y="298" type="line"/>
    </contour>
  </outline>
</glyph>
<glyph name="S" format="2">
  <advance width="607"/>
  <unicode hex="0053"/>
  <anchor x="294" y="0" name="bottom"/>
  <anchor x="327" y="742" name="top"/>
  <outline>
    <contour>
      <point x="594" y="827" type="line"/>
      <point x="597" y="720" type="line"/>
      <point x="231" y="767" type="line"/>
      <point x="411" y="827" type="line"/>
      <point x="-33" y="583" type="line"/>
      <point x="87" y="771" type="line"/>
      <point x="56" y="282" type="line"/>
      <point x="2" y="362" type="line"/>
      <point x="267" y="256" type="line"/>
      <point x="81" y="274" type="line"/>
      <point x="427" y="303" type="line"/>
      <point x="300" y="355" type="line"/>
      <point x="429" y="243" type="line"/>
      <point x="387" y="372" type="line"/>
      <point x="370" y="108" type="line"/>
      <point x="418" y="180" type="line"/>
      <point x="308" y="123" type="line"/>
      <point x="402" y="135" type="line"/>
      <point x="11" y="215" type="line"/>
      <point x="65" y="307" type="line"/>
      <point x="-34" y="-38" type="line"/>
      <point x="-52" y="35" type="line"/>
      <point x="402" y="-25" type="line"/>
      <point x="320" y="-35" type="line"/>
      <point x="614" y="119" type="line"/>
      <point x="534" y="-23" type="line"/>
      <point x="594" y="470" type="line"/>
      <point x="692" y="331" type="line"/>
      <point x="367" y="485" type="line"/>
      <point x="528" y="464" type="line"/>
      <point x="218" y="424" type="line"/>
      <point x="302" y="395" type="line"/>
      <point x="220" y="459" type="line"/>
      <point x="246" y="399" type="line"/>
      <point x="269" y="639" type="line"/>
      <point x="226" y="576" type="line"/>
      <point x="349" y="645" type="line"/>
      <point x="247" y="609" type="line"/>
      <point x="571" y="531" type="line"/>
      <point x="510" y="479" type="line"/>
    </contour>
  </outline>
</glyph>
<glyph name="T" format="2">
  <advance width="523"/>
  <unicode hex="0054"/>
  <anchor x="207" y="0" name="bottom"/>
  <anchor x="257" y="742" name="top"/>
  <outline>
    <contour>
      <point x="87" y="486" type="line"/>
      <point x="162" y="594" type="line"/>
      <point x="102" y="-78" type="line"/>
      <point x="82" y="0" type="line"/>
      <point x="345" y="0" type="line"/>
      <point x="299" y="-78" type="line"/>
      <point x="344" y="703" type="line"/>
      <point x="349" y="649" type="line"/>
      <point x="175" y="554" type="line"/>
      <point x="192" y="610" type="line"/>
      <point x="220" y="517" type="line"/>
      <point x="248" y="577" type="line"/>
      <point x="180" y="544" type="line"/>
    </contour>
    <contour>
      <point x="597" y="747" type="line"/>
      <point x="174" y="739" type="line"/>
      <point x="380" y="740" type="line"/>
      <point x="-42" y="741" type="line"/>
      <point x="28" y="780" type="line"/>
      <point x="10" y="504" type="line"/>
      <point x="-68" y="554" type="line"/>
      <point x="448" y="569" type="line"/>
      <point x="80" y="564" type="line"/>
      <point x="576" y="560" type="line"/>
      <point x="498" y="517" type="line"/>
      <point x="516" y="793" type="line"/>
    </contour>
  </outline>
</glyph>
<glyph name="U" format="2">
  <advance width="686"/>
  <unicode hex="0055"/>
  <anchor x="550" y="1" name="ogonek"/>
  <anchor x="377" y="742" name="top"/>
  <outline>
    <contour>
      <point x="640" y="779" type="line"/>
      <point x="682" y="742" type="line"/>
      <point x="404" y="742" type="line"/>
      <point x="442" y="779" type="line"/>
      <point x="413" y="22" type="line"/>
      <point x="361" y="82" type="line"/>
      <point x="609" y="-42" type="line"/>
      <point x="548" y="-65" type="line"/>
      <point x="669" y="153" type="line"/>
      <point x="699" y="131" type="line"/>
      <point x="525" y="178" type="line"/>
      <point x="582" y="94" type="line"/>
    </contour>
    <contour>
      <point x="192" y="207" type="line"/>
      <point x="226" y="176" type="line"/>
      <point x="315" y="776" type="line"/>
      <point x="355" y="662" type="line"/>
      <point x="248" y="793" type="line"/>
      <point x="310" y="742" type="line"/>
      <point x="-9" y="745" type="line"/>
      <point x="61" y="791" type="line"/>
      <point x="43" y="515" type="line"/>
      <point x="-35" y="555" type="line"/>
      <point x="215" y="577" type="line"/>
      <point x="139" y="639" type="line"/>
      <point x="1" y="77" type="line"/>
      <point x="-17" y="125" type="line"/>
      <point x="412" y="-41" type="line"/>
      <point x="344" y="-40" type="line"/>
      <point x="513" y="162" type="line"/>
      <point x="528" y="140" type="line"/>
    </contour>
  </outline>
</glyph>
<glyph name="V" format="2">
  <advance width="663"/>
  <unicode hex="0056"/>
  <outline>
    <contour>
      <point x="658" y="187" type="line"/>
      <point x="572" y="35" type="line"/>
      <point x="653" y="801" type="line"/>
      <point x="660" y="742" type="line"/>
      <point x="392" y="742" type="line"/>
      <point x="453" y="801" type="line"/>
      <point x="406" y="87" type="line"/>
      <point x="453" y="149" type="line"/>
      <point x="149" y="284" type="line"/>
      <point x="222" y="115" type="line"/>
      <point x="312" y="776" type="line"/>
      <point x="352" y="662" type="line"/>
      <point x="245" y="793" type="line"/>
      <point x="307" y="742" type="line"/>
      <point x="-11" y="745" type="line"/>
      <point x="58" y="791" type="line"/>
      <point x="41" y="515" type="line"/>
      <point x="-37" y="554" type="line"/>
      <point x="212" y="585" type="line"/>
      <point x="136" y="639" type="line"/>
      <point x="-4" y="17" type="line"/>
      <point x="-64" y="210" type="line"/>
      <point x="429" y="-62" type="line"/>
      <point x="234" y="-129" type="line"/>
    </contour>
  </outline>
</glyph>
<glyph name="W" format="2">
  <advance width="997"/>
  <unicode hex="0057"/>
  <anchor x="542" y="742" name="top"/>
  <outline>
    <contour>
      <point x="561" y="119" type="line"/>
      <point x="441" y="119" type="line"/>
      <point x="770" y="-62" type="line"/>
      <point x="574" y="-129" type="line"/>
      <point x="999" y="187" type="line"/>
      <point x="913" y="35" type="line"/>
      <point x="993" y="801" type="line"/>
      <point x="1001" y="742" type="line"/>
      <point x="732" y="742" type="line"/>
      <point x="793" y="801" type="line"/>
      <point x="746" y="87" type="line"/>
      <point x="793" y="149" type="line"/>
      <point x="545" y="259" type="line"/>
      <point x="585" y="210" type="line"/>
      <point x="647" y="801" type="line"/>
      <point x="654" y="742" type="line"/>
      <point x="386" y="742" type="line"/>
      <point x="447" y="801" type="line"/>
      <point x="400" y="87" type="line"/>
      <point x="447" y="149" type="line"/>
      <point x="143" y="284" type="line"/>
      <point x="216" y="115" type="line"/>
      <point x="306" y="776" type="line"/>
      <point x="346" y="662" type="line"/>
      <point x="239" y="793" type="line"/>
      <point x="301" y="742" type="line"/>
      <point x="-17" y="745" type="line"/>
      <point x="52" y="791" type="line"/>
      <point x="35" y="515" type="line"/>
      <point x="-43" y="554" type="line"/>
      <point x="206" y="585" type="line"/>
      <point x="130" y="639" type="line"/>
      <point x="-10" y="17" type="line"/>
      <point x="-70" y="210" type="line"/>
      <point x="423" y="-62" type="line"/>
      <point x="228" y="-129" type="line"/>
    </contour>
  </outline>
</glyph>
<glyph name="X" format="2">
  <advance width="699"/>
  <unicode hex="0058"/>
  <outline>
    <contour>
      <point x="190" y="577" type="line"/>
      <point x="139" y="588" type="line"/>
      <point x="247" y="335" type="line"/>
      <point x="219" y="331" type="line"/>
      <point x="357" y="331" type="line"/>
      <point x="273" y="385" type="line"/>
      <point x="428" y="-30" type="line"/>
      <point x="393" y="0" type="line"/>
      <point x="761" y="-4" type="line"/>
      <point x="662" y="-63" type="line"/>
      <point x="685" y="293" type="line"/>
      <point x="795" y="185" type="line"/>
      <point x="521" y="165" type="line"/>
      <point x="569" y="154" type="line"/>
      <point x="452" y="423" type="line"/>
      <point x="469" y="442" type="line"/>
      <point x="360" y="442" type="line"/>
      <point x="426" y="376" type="line"/>
      <point x="280" y="772" type="line"/>
      <point x="317" y="742" type="line"/>
      <point x="-54" y="746" type="line"/>
      <point x="44" y="805" type="line"/>
      <point x="21" y="449" type="line"/>
      <point x="-89" y="557" type="line"/>
    </contour>
    <contour>
      <point x="697" y="567" type="line"/>
      <point x="647" y="809" type="line"/>
      <point x="697" y="742" type="line"/>
      <point x="297" y="746" type="line"/>
      <point x="394" y="805" type="line"/>
      <point x="371" y="449" type="line"/>
      <point x="261" y="554" type="line"/>
      <point x="520" y="577" type="line"/>
      <point x="526" y="607" type="line"/>
      <point x="315" y="313" type="line"/>
      <point x="322" y="393" type="line"/>
      <point x="440" y="244" type="line"/>
      <point x="362" y="253" type="line"/>
      <point x="706" y="656" type="line"/>
    </contour>
    <contour>
      <point x="-3" y="175" type="line"/>
      <point x="47" y="-68" type="line"/>
      <point x="-3" y="0" type="line"/>
      <point x="404" y="-4" type="line"/>
      <point x="305" y="-63" type="line"/>
      <point x="329" y="293" type="line"/>
      <point x="426" y="186" type="line"/>
      <point x="144" y="162" type="line"/>
      <point x="146" y="137" type="line"/>
      <point x="369" y="441" type="line"/>
      <point x="362" y="361" type="line"/>
      <point x="244" y="509" type="line"/>
      <point x="321" y="504" type="line"/>
      <point x="-32" y="88" type="line"/>
    </contour>
  </outline>
</glyph>
<glyph name="Y" format="2">
  <advance width="678"/>
  <unicode hex="0059"/>
  <anchor x="382" y="790" name="top"/>
  <outline>
    <contour>
      <point x="688" y="180" type="line"/>
      <point x="592" y="-83" type="line"/>
      <point x="654" y="853" type="line"/>
      <point x="685" y="790" type="line"/>
      <point x="399" y="790" type="line"/>
      <point x="450" y="853" type="line"/>
      <point x="425" y="367" type="line"/>
      <point x="366" y="333" type="line"/>
      <point x="468" y="307" type="line"/>
      <point x="427" y="348" type="line"/>
      <point x="416" y="115" type="line"/>
      <point x="455" y="207" type="line"/>
      <point x="372" y="137" type="line"/>
      <point x="494" y="163" type="line"/>
      <point x="-36" y="196" type="line"/>
      <point x="66" y="242" type="line"/>
      <point x="47" y="-52" type="line"/>
      <point x="-8" y="-3" type="line"/>
      <point x="631" y="0" type="line"/>
      <point x="410" y="-32" type="line"/>
    </contour>
    <contour>
      <point x="315" y="196" type="line"/>
      <point x="497" y="404" type="line"/>
      <point x="527" y="378" type="line"/>
      <point x="126" y="477" type="line"/>
      <point x="250" y="384" type="line"/>
      <point x="321" y="826" type="line"/>
      <point x="364" y="705" type="line"/>
      <point x="250" y="845" type="line"/>
      <point x="316" y="790" type="line"/>
      <point x="-23" y="793" type="line"/>
      <point x="51" y="842" type="line"/>
      <point x="32" y="548" type="line"/>
      <point x="-51" y="590" type="line"/>
      <point x="215" y="623" type="line"/>
      <point x="134" y="681" type="line"/>
      <point x="34" y="321" type="line"/>
      <point x="-101" y="399" type="line"/>
      <point x="410" y="194" type="line"/>
    </contour>
  </outline>
</glyph>
<glyph name="Z" format="2">
  <advance width="563"/>
  <unicode hex="005A"/>
  <anchor x="310" y="742" name="top"/>
  <outline>
    <contour>
      <point x="-64" y="-39" type="line"/>
      <point x="-97" y="144" type="line"/>
      <point x="140" y="-69" type="line"/>
      <point x="-19" y="0" type="line"/>
      <point x="621" y="-4" type="line"/>
      <point x="529" y="-65" type="line"/>
      <point x="552" y="300" type="line"/>
      <point x="655" y="188" type="line"/>
      <point x="189" y="153" type="line"/>
      <point x="325" y="103" type="line"/>
      <point x="210" y="247" type="line"/>
      <point x="240" y="108" type="line"/>
      <point x="304" y="218" type="line"/>
      <point x="588" y="777" type="line"/>
      <point x="620" y="599" type="line"/>
      <point x="408" y="809" type="line"/>
      <point x="567" y="742" type="line"/>
      <point x="-18" y="746" type="line"/>
      <point x="74" y="806" type="line"/>
      <point x="51" y="441" type="line"/>
      <point x="-53" y="549" type="line"/>
      <point x="338" y="585" type="line"/>
      <point x="260" y="633" type="line"/>
      <point x="361" y="521" type="line"/>
      <point x="343" y="631" type="line"/>
      <point x="279" y="530" type="line"/>
    </contour>
  </outline>
</glyph>
<glyph name="underscore" format="2">
  <advance width="540"/>
  <unicode hex="005F"/>
  <outline>
    <contour>
      <point x="25" y="-204" type="line"/>
      <point x="-52" y="-127" type="line"/>
      <point x="331" y="-121" type="line"/>
      <point x="591" y="-125" type="line"/>
      <point x="499" y="-203" type="line"/>
      <point x="513" y="7" type="line"/>
      <point x="599" y="-32" type="line"/>
      <point x="285" y="-34" type="line"/>
      <point x="-64" y="-28" type="line"/>
      <point x="39" y="7" type="line"/>
    </contour>
  </outline>
</glyph>
<glyph name="a" format="2">
  <advance width="555"/>
  <unicode hex="0061"/>
  <anchor x="445" y="0" name="ogonek"/>
  <anchor x="289" y="563" name="top"/>
  <outline>
    <contour>
      <point x="-22" y="386" type="line"/>
      <point x="352" y="439" type="line"/>
      <point x="288" y="463" type="line"/>
      <point x="338" y="404" type="line"/>
      <point x="321" y="470" type="line"/>
      <point x="321" y="414" type="line"/>
      <point x="313" y="405" type="line"/>
      <point x="292" y="-5" type="line"/>
      <point x="259" y="86" type="line"/>
      <point x="507" y="-38" type="line"/>
      <point x="446" y="-60" type="line"/>
      <point x="566" y="158" type="line"/>
      <point x="597" y="121" type="line"/>
      <point x="423" y="169" type="line"/>
      <point x="457" y="121" type="line"/>
      <point x="505" y="623" type="line"/>
      <point x="533" y="470" type="line"/>
      <point x="343" y="609" type="line"/>
      <point x="473" y="563" type="line"/>
      <point x="5" y="566" type="line"/>
      <point x="74" y="612" type="line"/>
      <point x="56" y="336" type="line"/>
    </contour>
    <contour>
      <point x="78" y="198" type="line"/>
      <point x="349" y="374" type="line"/>
      <point x="332" y="432" type="line"/>
      <point x="-35" y="217" type="line"/>
      <point x="67" y="300" type="line"/>
      <point x="7" y="45" type="line"/>
      <point x="-94" y="130" type="line"/>
      <point x="293" y="-38" type="line"/>
      <point x="225" y="-38" type="line"/>
      <point x="394" y="166" type="line"/>
      <point x="408" y="117" type="line"/>
      <point x="116" y="182" type="line"/>
      <point x="197" y="146" type="line"/>
      <point x="207" y="331" type="line"/>
    </contour>
  </outline>
</glyph>
<glyph name="c" format="2">
  <advance width="487"/>
  <unicode hex="0063"/>
  <anchor x="223" y="0" name="bottom"/>
  <anchor x="273" y="600" name="top"/>
  <outline>
    <contour>
      <point x="483" y="411" type="line"/>
      <point x="417" y="386" type="line"/>
      <point x="486" y="672" type="line"/>
      <point x="525" y="589" type="line"/>
      <point x="182" y="622" type="line"/>
      <point x="348" y="658" type="line"/>
      <point x="-45" y="468" type="line"/>
      <point x="74" y="608" type="line"/>
      <point x="23" y="5" type="line"/>
      <point x="-18" y="104" type="line"/>
      <point x="312" y="-40" type="line"/>
      <point x="135" y="-10" type="line"/>
      <point x="479" y="0" type="line"/>
      <point x="426" y="-32" type="line"/>
      <point x="419" y="210" type="line"/>
      <point x="453" y="183" type="line"/>
      <point x="247" y="158" type="line"/>
      <point x="365" y="148" type="line"/>
      <point x="179" y="182" type="line"/>
      <point x="210" y="109" type="line"/>
      <point x="220" y="477" type="line"/>
      <point x="176" y="414" type="line"/>
      <point x="277" y="471" type="line"/>
      <point x="196" y="458" type="line"/>
    </contour>
  </outline>
</glyph>
<glyph name="e" format="2">
  <advance width="502"/>
  <unicode hex="0065"/>
  <anchor x="208" y="0" name="bottom"/>
  <anchor x="378" y="0" name="ogonek"/>
  <anchor x="255" y="563" name="top"/>
  <outline>
    <contour>
      <point x="183" y="427" type="line"/>
      <point x="372" y="387" type="line"/>
      <point x="295" y="426" type="line"/>
      <point x="285" y="241" type="line"/>
      <point x="410" y="366" type="line"/>
      <point x="128" y="209" type="line"/>
      <point x="141" y="150" type="line"/>
      <point x="522" y="340" type="line"/>
      <point x="426" y="273" type="line"/>
      <point x="496" y="526" type="line"/>
      <point x="582" y="439" type="line"/>
      <point x="195" y="608" type="line"/>
      <point x="324" y="616" type="line"/>
      <point x="-45" y="439" type="line"/>
      <point x="67" y="571" type="line"/>
      <point x="22" y="5" type="line"/>
      <point x="-19" y="98" type="line"/>
      <point x="291" y="-38" type="line"/>
      <point x="126" y="-9" type="line"/>
      <point x="486" y="0" type="line"/>
      <point x="437" y="-30" type="line"/>
      <point x="430" y="197" type="line"/>
      <point x="462" y="172" type="line"/>
      <point x="256" y="147" type="line"/>
      <point x="343" y="139" type="line"/>
      <point x="168" y="171" type="line"/>
      <point x="197" y="102" type="line"/>
      <point x="207" y="448" type="line"/>
      <point x="165" y="390" type="line"/>
      <point x="260" y="443" type="line"/>
    </contour>
  </outline>
</glyph>
<glyph name="f" format="2">
  <advance width="395"/>
  <unicode hex="0066"/>
  <outline>
    <contour>
      <point x="195" y="698" type="line"/>
      <point x="433" y="642" type="line"/>
      <point x="353" y="625" type="line"/>
      <point x="436" y="966" type="line"/>
      <point x="475" y="820" type="line"/>
      <point x="118" y="830" type="line"/>
      <point x="361" y="892" type="line"/>
      <point x="-40" y="678" type="line"/>
      <point x="95" y="855" type="line"/>
      <point x="104" y="559" type="line"/>
      <point x="140" y="600" type="line"/>
      <point x="-59" y="603" type="line"/>
      <point x="22" y="652" type="line"/>
      <point x="3" y="358" type="line"/>
      <point x="-87" y="443" type="line"/>
      <point x="159" y="438" type="line"/>
      <point x="94" y="498" type="line"/>
      <point x="32" y="-323" type="line"/>
      <point x="-9" y="-220" type="line"/>
      <point x="277" y="-220" type="line"/>
      <point x="229" y="-323" type="line"/>
      <point x="250" y="486" type="line"/>
      <point x="228" y="435" type="line"/>
      <point x="392" y="426" type="line"/>
      <point x="362" y="402" type="line"/>
      <point x="378" y="652" type="line"/>
      <point x="406" y="600" type="line"/>
      <point x="218" y="600" type="line"/>
      <point x="231" y="566" type="line"/>
      <point x="234" y="746" type="line"/>
      <point x="215" y="673" type="line"/>
      <point x="316" y="730" type="line"/>
    </contour>
  </outline>
</glyph>
<glyph name="g" format="2">
  <advance width="599"/>
  <unicode hex="0067"/>
  <anchor x="314" y="600" name="top"/>
  <outline>
    <contour>
      <point x="621" y="506" type="line"/>
      <point x="152" y="646" type="line"/>
      <point x="323" y="655" type="line"/>
      <point x="-70" y="468" type="line"/>
      <point x="64" y="658" type="line"/>
      <point x="51" y="55" type="line"/>
      <point x="-37" y="117" type="line"/>
      <point x="239" y="10" type="line"/>
      <point x="215" y="41" type="line"/>
      <point x="-45" y="-143" type="line"/>
      <point x="39" y="-38" type="line"/>
      <point x="35" y="-251" type="line"/>
      <point x="-28" y="-177" type="line"/>
      <point x="492" y="-260" type="line"/>
      <point x="333" y="-258" type="line"/>
      <point x="557" y="-112" type="line"/>
      <point x="523" y="-226" type="line"/>
      <point x="530" y="89" type="line"/>
      <point x="586" y="713" type="line"/>
    </contour>
    <contour>
      <point x="429" y="404" type="line"/>
      <point x="384" y="506" type="line"/>
      <point x="380" y="117" type="line"/>
      <point x="359" y="64" type="line"/>
      <point x="408" y="48" type="line"/>
      <point x="365" y="103" type="line"/>
      <point x="377" y="-130" type="line"/>
      <point x="411" y="-56" type="line"/>
      <point x="330" y="-111" type="line"/>
      <point x="409" y="-101" type="line"/>
      <point x="105" y="-56" type="line"/>
      <point x="186" y="-110" type="line"/>
      <point x="170" y="-14" type="line"/>
      <point x="109" y="-103" type="line"/>
      <point x="475" y="133" type="line"/>
      <point x="504" y="125" type="line"/>
      <point x="187" y="197" type="line"/>
      <point x="243" y="151" type="line"/>
      <point x="220" y="527" type="line"/>
      <point x="174" y="410" type="line"/>
      <point x="275" y="467" type="line"/>
      <point x="166" y="451" type="line"/>
    </contour>
  </outline>
</glyph>
<glyph name="l" format="2">
  <advance width="313"/>
  <unicode hex="006C"/>
  <anchor x="145" y="0" name="bottom"/>
  <anchor x="178" y="751" name="top"/>
  <outline>
    <contour>
      <point x="267" y="817" type="line"/>
      <point x="301" y="690" type="line"/>
      <point x="194" y="822" type="line"/>
      <point x="253" y="770" type="line"/>
      <point x="-53" y="773" type="line"/>
      <point x="23" y="819" type="line"/>
      <point x="6" y="543" type="line"/>
      <point x="-79" y="589" type="line"/>
      <point x="152" y="634" type="line"/>
      <point x="100" y="691" type="line"/>
      <point x="38" y="-38" type="line"/>
      <point x="23" y="74" type="line"/>
      <point x="263" y="-37" type="line"/>
      <point x="203" y="-59" type="line"/>
      <point x="323" y="159" type="line"/>
      <point x="346" y="124" type="line"/>
      <point x="182" y="168" type="line"/>
      <point x="227" y="121" type="line"/>
    </contour>
  </outline>
</glyph>
<glyph name="n" format="2">
  <advance width="615"/>
  <unicode hex="006E"/>
  <anchor x="285" y="0" name="bottom"/>
  <anchor x="330" y="563" name="top"/>
  <outline>
    <contour>
      <point x="387" y="-52" type="line"/>
      <point x="328" y="0" type="line"/>
      <point x="637" y="-3" type="line"/>
      <point x="567" y="-49" type="line"/>
      <point x="585" y="227" type="line"/>
      <point x="663" y="177" type="line"/>
      <point x="413" y="142" type="line"/>
      <point x="480" y="102" type="line"/>
      <point x="602" y="536" type="line"/>
      <point x="650" y="453" type="line"/>
      <point x="263" y="602" type="line"/>
      <point x="331" y="601" type="line"/>
      <point x="162" y="397" type="line"/>
      <point x="147" y="442" type="line"/>
      <point x="439" y="387" type="line"/>
      <point x="386" y="438" type="line"/>
      <point x="323" y="-34" type="line"/>
      <point x="280" y="80" type="line"/>
    </contour>
    <contour>
      <point x="236" y="-59" type="line"/>
      <point x="264" y="568" type="line"/>
      <point x="297" y="477" type="line"/>
      <point x="49" y="601" type="line"/>
      <point x="110" y="623" type="line"/>
      <point x="-10" y="406" type="line"/>
      <point x="-41" y="442" type="line"/>
      <point x="133" y="394" type="line"/>
      <point x="99" y="442" type="line"/>
      <point x="51" y="-59" type="line"/>
      <point x="11" y="0" type="line"/>
      <point x="280" y="0" type="line"/>
    </contour>
  </outline>
</glyph>
<glyph name="o" format="2">
  <advance width="587"/>
  <unicode hex="006F"/>
  <anchor x="301" y="600" name="top"/>
  <outline>
    <contour>
      <point x="62" y="608" type="line"/>
      <point x="34" y="5" type="line"/>
      <point x="-68" y="133" type="line"/>
      <point x="391" y="-46" type="line"/>
      <point x="260" y="-53" type="line"/>
      <point x="631" y="118" type="line"/>
      <point x="504" y="-7" type="line"/>
      <point x="571" y="596" type="line"/>
      <point x="642" y="472" type="line"/>
      <point x="173" y="653" type="line"/>
      <point x="336" y="662" type="line"/>
      <point x="-57" y="468" type="line"/>
    </contour>
    <contour>
      <point x="187" y="455" type="line"/>
      <point x="450" y="383" type="line"/>
      <point x="371" y="446" type="line"/>
      <point x="361" y="123" type="line"/>
      <point x="411" y="183" type="line"/>
      <point x="310" y="126" type="line"/>
      <point x="392" y="144" type="line"/>
      <point x="154" y="204" type="line"/>
      <point x="223" y="130" type="line"/>
      <point x="213" y="477" type="line"/>
      <point x="167" y="414" type="line"/>
      <point x="268" y="471" type="line"/>
    </contour>
  </outline>
</glyph>
<glyph name="p" format="2">
  <advance width="576"/>
  <unicode hex="0070"/>
  <outline>
    <contour>
      <point x="133" y="394" type="line"/>
      <point x="99" y="468" type="line"/>
      <point x="37" y="-303" type="line"/>
      <point x="-1" y="-207" type="line"/>
      <point x="268" y="-207" type="line"/>
      <point x="225" y="-303" type="line"/>
      <point x="224" y="65" type="line"/>
      <point x="190" y="5" type="line"/>
      <point x="269" y="50" type="line"/>
      <point x="235" y="94" type="line"/>
      <point x="246" y="540" type="line"/>
      <point x="297" y="477" type="line"/>
      <point x="49" y="601" type="line"/>
      <point x="110" y="623" type="line"/>
      <point x="-10" y="406" type="line"/>
      <point x="-41" y="442" type="line"/>
    </contour>
    <contour>
      <point x="185" y="152" type="line"/>
      <point x="140" y="60" type="line"/>
      <point x="439" y="-52" type="line"/>
      <point x="223" y="-76" type="line"/>
      <point x="631" y="112" type="line"/>
      <point x="506" y="-46" type="line"/>
      <point x="542" y="548" type="line"/>
      <point x="632" y="490" type="line"/>
      <point x="255" y="598" type="line"/>
      <point x="326" y="597" type="line"/>
      <point x="155" y="407" type="line"/>
      <point x="140" y="443" type="line"/>
      <point x="422" y="415" type="line"/>
      <point x="362" y="458" type="line"/>
      <point x="370" y="77" type="line"/>
      <point x="407" y="163" type="line"/>
      <point x="329" y="102" type="line"/>
      <point x="422" y="121" type="line"/>
    </contour>
  </outline>
</glyph>
<glyph name="r" format="2">
  <advance width="411"/>
  <unicode hex="0072"/>
  <anchor x="145" y="0" name="bottom"/>
  <anchor x="250" y="563" name="top"/>
  <outline>
    <contour>
      <point x="426" y="600" type="line"/>
      <point x="466" y="565" type="line"/>
      <point x="244" y="580" type="line"/>
      <point x="330" y="608" type="line"/>
      <point x="162" y="400" type="line"/>
      <point x="157" y="431" type="line"/>
      <point x="413" y="396" type="line"/>
      <point x="362" y="331" type="line"/>
    </contour>
    <contour>
      <point x="236" y="-59" type="line"/>
      <point x="264" y="568" type="line"/>
      <point x="297" y="477" type="line"/>
      <point x="49" y="601" type="line"/>
      <point x="110" y="623" type="line"/>
      <point x="-10" y="406" type="line"/>
      <point x="-41" y="442" type="line"/>
      <point x="133" y="394" type="line"/>
      <point x="99" y="442" type="line"/>
      <point x="51" y="-59" type="line"/>
      <point x="11" y="0" type="line"/>
      <point x="280" y="0" type="line"/>
    </contour>
  </outline>
</glyph>
<glyph name="s" format="2">
  <advance width="512"/>
  <unicode hex="0073"/>
  <anchor x="253" y="0" name="bottom"/>
  <anchor x="278" y="600" name="top"/>
  <outline>
    <contour>
      <point x="494" y="674" type="line"/>
      <point x="496" y="586" type="line"/>
      <point x="196" y="624" type="line"/>
      <point x="339" y="666" type="line"/>
      <point x="-24" y="465" type="line"/>
      <point x="78" y="627" type="line"/>
      <point x="52" y="226" type="line"/>
      <point x="0" y="293" type="line"/>
      <point x="218" y="206" type="line"/>
      <point x="73" y="215" type="line"/>
      <point x="357" y="239" type="line"/>
      <point x="253" y="280" type="line"/>
      <point x="358" y="188" type="line"/>
      <point x="317" y="300" type="line"/>
      <point x="302" y="83" type="line"/>
      <point x="350" y="160" type="line"/>
      <point x="259" y="113" type="line"/>
      <point x="336" y="126" type="line"/>
      <point x="15" y="195" type="line"/>
      <point x="60" y="247" type="line"/>
      <point x="-22" y="-37" type="line"/>
      <point x="-36" y="23" type="line"/>
      <point x="332" y="-26" type="line"/>
      <point x="259" y="-29" type="line"/>
      <point x="505" y="97" type="line"/>
      <point x="445" y="-24" type="line"/>
      <point x="494" y="381" type="line"/>
      <point x="582" y="266" type="line"/>
      <point x="315" y="392" type="line"/>
      <point x="440" y="379" type="line"/>
      <point x="185" y="347" type="line"/>
      <point x="254" y="328" type="line"/>
      <point x="187" y="381" type="line"/>
      <point x="214" y="322" type="line"/>
      <point x="222" y="477" type="line"/>
      <point x="192" y="444" type="line"/>
      <point x="293" y="501" type="line"/>
      <point x="209" y="473" type="line"/>
      <point x="475" y="402" type="line"/>
      <point x="425" y="388" type="line"/>
    </contour>
  </outline>
</glyph>
<glyph name="t" format="2">
  <advance width="367"/>
  <unicode hex="0074"/>
  <anchor x="167" y="0" name="bottom"/>
  <anchor x="192" y="751" name="top"/>
  <outline>
    <contour>
      <point x="189" y="166" type="line"/>
      <point x="239" y="121" type="line"/>
      <point x="252" y="463" type="line"/>
      <point x="214" y="408" type="line"/>
      <point x="370" y="401" type="line"/>
      <point x="345" y="377" type="line"/>
      <point x="360" y="612" type="line"/>
      <point x="383" y="563" type="line"/>
      <point x="223" y="563" type="line"/>
      <point x="243" y="498" type="line"/>
      <point x="277" y="770" type="line"/>
      <point x="306" y="739" type="line"/>
      <point x="52" y="724" type="line"/>
      <point x="99" y="764" type="line"/>
      <point x="93" y="526" type="line"/>
      <point x="131" y="563" type="line"/>
      <point x="-52" y="566" type="line"/>
      <point x="21" y="612" type="line"/>
      <point x="3" y="336" type="line"/>
      <point x="-78" y="415" type="line"/>
      <point x="149" y="411" type="line"/>
      <point x="91" y="461" type="line"/>
      <point x="52" y="-5" type="line"/>
      <point x="29" y="74" type="line"/>
      <point x="280" y="-37" type="line"/>
      <point x="220" y="-59" type="line"/>
      <point x="340" y="159" type="line"/>
      <point x="363" y="124" type="line"/>
    </contour>
  </outline>
</glyph>
<glyph name="u" format="2">
  <advance width="613"/>
  <unicode hex="0075"/>
  <anchor x="503" y="0" name="ogonek"/>
  <anchor x="335" y="563" name="top"/>
  <outline>
    <contour>
      <point x="227" y="615" type="line"/>
      <point x="286" y="563" type="line"/>
      <point x="-23" y="566" type="line"/>
      <point x="47" y="612" type="line"/>
      <point x="29" y="336" type="line"/>
      <point x="-49" y="386" type="line"/>
      <point x="201" y="422" type="line"/>
      <point x="134" y="461" type="line"/>
      <point x="12" y="27" type="line"/>
      <point x="-36" y="111" type="line"/>
      <point x="351" y="-38" type="line"/>
      <point x="284" y="-38" type="line"/>
      <point x="453" y="166" type="line"/>
      <point x="467" y="121" type="line"/>
      <point x="175" y="177" type="line"/>
      <point x="228" y="126" type="line"/>
      <point x="291" y="597" type="line"/>
      <point x="334" y="484" type="line"/>
    </contour>
    <contour>
      <point x="378" y="623" type="line"/>
      <point x="350" y="-5" type="line"/>
      <point x="317" y="86" type="line"/>
      <point x="565" y="-38" type="line"/>
      <point x="504" y="-60" type="line"/>
      <point x="624" y="158" type="line"/>
      <point x="655" y="121" type="line"/>
      <point x="481" y="169" type="line"/>
      <point x="515" y="121" type="line"/>
      <point x="563" y="623" type="line"/>
      <point x="603" y="563" type="line"/>
      <point x="334" y="563" type="line"/>
    </contour>
  </outline>
</glyph>
<glyph name="v" format="2">
  <advance width="617"/>
  <unicode hex="0076"/>
  <outline>
    <contour>
      <point x="600" y="168" type="line"/>
      <point x="542" y="82" type="line"/>
      <point x="597" y="663" type="line"/>
      <point x="639" y="600" type="line"/>
      <point x="353" y="600" type="line"/>
      <point x="400" y="663" type="line"/>
      <point x="375" y="116" type="line"/>
      <point x="442" y="128" type="line"/>
      <point x="233" y="218" type="line"/>
      <point x="255" y="124" type="line"/>
      <point x="307" y="636" type="line"/>
      <point x="353" y="515" type="line"/>
      <point x="239" y="655" type="line"/>
      <point x="302" y="600" type="line"/>
      <point x="-27" y="603" type="line"/>
      <point x="47" y="652" type="line"/>
      <point x="28" y="358" type="line"/>
      <point x="-55" y="411" type="line"/>
      <point x="211" y="449" type="line"/>
      <point x="140" y="491" type="line"/>
      <point x="30" y="19" type="line"/>
      <point x="9" y="148" type="line"/>
      <point x="401" y="-57" type="line"/>
      <point x="279" y="-56" type="line"/>
    </contour>
  </outline>
</glyph>
<glyph name="w" format="2">
  <advance width="845"/>
  <unicode hex="0077"/>
  <anchor x="466" y="563" name="top"/>
  <outline>
    <contour>
      <point x="562" y="158" type="line"/>
      <point x="508" y="77" type="line"/>
      <point x="560" y="623" type="line"/>
      <point x="599" y="563" type="line"/>
      <point x="330" y="563" type="line"/>
      <point x="375" y="623" type="line"/>
      <point x="351" y="109" type="line"/>
      <point x="414" y="120" type="line"/>
      <point x="218" y="205" type="line"/>
      <point x="238" y="116" type="line"/>
      <point x="287" y="597" type="line"/>
      <point x="330" y="484" type="line"/>
      <point x="223" y="615" type="line"/>
      <point x="283" y="563" type="line"/>
      <point x="-26" y="566" type="line"/>
      <point x="43" y="612" type="line"/>
      <point x="25" y="336" type="line"/>
      <point x="-53" y="386" type="line"/>
      <point x="197" y="422" type="line"/>
      <point x="130" y="461" type="line"/>
      <point x="27" y="18" type="line"/>
      <point x="7" y="139" type="line"/>
      <point x="376" y="-54" type="line"/>
      <point x="261" y="-53" type="line"/>
    </contour>
    <contour>
      <point x="497" y="215" type="line"/>
      <point x="329" y="66" type="line"/>
      <point x="314" y="99" type="line"/>
      <point x="643" y="-54" type="line"/>
      <point x="529" y="-53" type="line"/>
      <point x="830" y="158" type="line"/>
      <point x="776" y="77" type="line"/>
      <point x="827" y="623" type="line"/>
      <point x="876" y="563" type="line"/>
      <point x="607" y="563" type="line"/>
      <point x="642" y="623" type="line"/>
      <point x="619" y="109" type="line"/>
      <point x="682" y="120" type="line"/>
      <point x="438" y="207" type="line"/>
    </contour>
  </outline>
</glyph>
<glyph name="y" format="2">
  <advance width="590"/>
  <unicode hex="0079"/>
  <anchor x="333" y="563" name="top"/>
  <outline>
    <contour>
      <point x="-19" y="-166" type="line"/>
      <point x="469" y="-244" type="line"/>
      <point x="320" y="-242" type="line"/>
      <point x="530" y="-105" type="line"/>
      <point x="500" y="-212" type="line"/>
      <point x="515" y="84" type="line"/>
      <point x="562" y="623" type="line"/>
      <point x="602" y="563" type="line"/>
      <point x="333" y="563" type="line"/>
      <point x="377" y="623" type="line"/>
      <point x="363" y="76" type="line"/>
      <point x="345" y="60" type="line"/>
      <point x="391" y="45" type="line"/>
      <point x="350" y="97" type="line"/>
      <point x="361" y="-122" type="line"/>
      <point x="393" y="-53" type="line"/>
      <point x="317" y="-104" type="line"/>
      <point x="403" y="-95" type="line"/>
      <point x="117" y="-53" type="line"/>
      <point x="186" y="-103" type="line"/>
      <point x="171" y="-13" type="line"/>
      <point x="110" y="-97" type="line"/>
      <point x="453" y="125" type="line"/>
      <point x="481" y="117" type="line"/>
      <point x="174" y="176" type="line"/>
      <point x="227" y="126" type="line"/>
      <point x="290" y="597" type="line"/>
      <point x="329" y="479" type="line"/>
      <point x="222" y="610" type="line"/>
      <point x="285" y="563" type="line"/>
      <point x="-24" y="566" type="line"/>
      <point x="46" y="612" type="line"/>
      <point x="28" y="336" type="line"/>
      <point x="-50" y="386" type="line"/>
      <point x="200" y="422" type="line"/>
      <point x="133" y="461" type="line"/>
      <point x="15" y="27" type="line"/>
      <point x="-37" y="100" type="line"/>
      <point x="232" y="9" type="line"/>
      <point x="209" y="38" type="line"/>
      <point x="-35" y="-134" type="line"/>
      <point x="44" y="-36" type="line"/>
      <point x="40" y="-236" type="line"/>
    </contour>
  </outline>
</glyph>
<glyph name="braceleft" format="2">
  <advance width="338"/>
  <unicode hex="007B"/>
  <outline>
    <contour>
      <point x="197" y="391" type="line"/>
      <point x="206" y="732" type="line"/>
      <point x="162" y="708" type="line"/>
      <point x="371" y="734" type="line"/>
      <point x="329" y="692" type="line"/>
      <point x="322" y="887" type="line"/>
      <point x="373" y="842" type="line"/>
      <point x="36" y="790" type="line"/>
      <point x="101" y="874" type="line"/>
      <point x="101" y="431" type="line"/>
      <point x="126" y="482" type="line"/>
      <point x="-3" y="376" type="line"/>
      <point x="14" y="434" type="line"/>
      <point x="8" y="263" type="line"/>
      <point x="-6" y="334" type="line"/>
      <point x="132" y="235" type="line"/>
      <point x="96" y="301" type="line"/>
      <point x="83" y="-126" type="line"/>
      <point x="38" y="-73" type="line"/>
      <point x="340" y="-125" type="line"/>
      <point x="316" y="-172" type="line"/>
      <point x="323" y="23" type="line"/>
      <point x="363" y="-19" type="line"/>
      <point x="144" y="10" type="line"/>
      <point x="190" y="-11" type="line"/>
      <point x="193" y="351" type="line"/>
      <point x="225" y="291" type="line"/>
      <point x="74" y="373" type="line"/>
      <point x="67" y="340" type="line"/>
      <point x="219" y="430" type="line"/>
    </contour>
  </outline>
</glyph>
<glyph name="bar" format="2">
  <advance width="219"/>
  <unicode hex="007C"/>
  <outline>
    <contour>
      <point x="71" y="555" type="line"/>
      <point x="49" y="-211" type="line"/>
      <point x="-10" y="-164" type="line"/>
      <point x="210" y="-164" type="line"/>
      <point x="151" y="-211" type="line"/>
      <point x="157" y="555" type="line"/>
      <point x="148" y="173" type="line"/>
      <point x="171" y="839" type="line"/>
      <point x="227" y="793" type="line"/>
      <point x="7" y="793" type="line"/>
      <point x="68" y="839" type="line"/>
      <point x="61" y="173" type="line"/>
    </contour>
  </outline>
</glyph>
<glyph name="exclamdown" format="2">
  <advance width="317"/>
  <unicode hex="00A1"/>
  <outline>
    <contour>
      <point x="257" y="367" type="line"/>
      <point x="274" y="600" type="line"/>
      <point x="309" y="569" type="line"/>
      <point x="55" y="563" type="line"/>
      <point x="104" y="594" type="line"/>
      <point x="94" y="371" type="line"/>
      <point x="57" y="416" type="line"/>
      <point x="278" y="412" type="line"/>
    </contour>
    <contour>
      <point x="290" y="-207" type="line"/>
      <point x="239" y="-305" type="line"/>
      <point x="248" y="362" type="line"/>
      <point x="288" y="338" type="line"/>
      <point x="57" y="341" type="line"/>
      <point x="104" y="377" type="line"/>
      <point x="31" y="-288" type="line"/>
      <point x="-8" y="-207" type="line"/>
    </contour>
  </outline>
</glyph>
<glyph name="brokenbar" format="2">
  <advance width="232"/>
  <unicode hex="00A6"/>
  <outline>
    <contour>
      <point x="227" y="438" type="line"/>
      <point x="169" y="352" type="line"/>
      <point x="173" y="627" type="line"/>
      <point x="186" y="862" type="line"/>
      <point x="236" y="783" type="line"/>
      <point x="39" y="783" type="line"/>
      <point x="78" y="870" type="line"/>
      <point x="74" y="584" type="line"/>
      <point x="62" y="341" type="line"/>
      <point x="29" y="438" type="line"/>
    </contour>
    <contour>
      <point x="213" y="-74" type="line"/>
      <point x="155" y="-160" type="line"/>
      <point x="159" y="144" type="line"/>
      <point x="168" y="373" type="line"/>
      <point x="222" y="294" type="line"/>
      <point x="25" y="294" type="line"/>
      <point x="66" y="380" type="line"/>
      <point x="59" y="100" type="line"/>
      <point x="45" y="-171" type="line"/>
      <point x="15" y="-74" type="line"/>
    </contour>
  </outline>
</glyph>
<glyph name="section" format="2">
  <advance width="618"/>
  <unicode hex="00A7"/>
  <outline>
    <contour>
      <point x="309" y="459" type="line"/>
      <point x="197" y="535" type="line"/>
      <point x="241" y="421" type="line"/>
      <point x="254" y="622" type="line"/>
      <point x="209" y="551" type="line"/>
      <point x="294" y="595" type="line"/>
      <point x="260" y="591" type="line"/>
      <point x="538" y="553" type="line"/>
      <point x="502" y="501" type="line"/>
      <point x="551" y="774" type="line"/>
      <point x="569" y="735" type="line"/>
      <point x="263" y="748" type="line"/>
      <point x="294" y="753" type="line"/>
      <point x="63" y="635" type="line"/>
      <point x="101" y="722" type="line"/>
      <point x="56" y="345" type="line"/>
      <point x="22" y="455" type="line"/>
      <point x="286" y="344" type="line"/>
      <point x="159" y="371" type="line"/>
      <point x="437" y="389" type="line"/>
      <point x="348" y="397" type="line"/>
      <point x="415" y="342" type="line"/>
      <point x="402" y="400" type="line"/>
      <point x="391" y="197" type="line"/>
      <point x="416" y="278" type="line"/>
      <point x="315" y="210" type="line"/>
      <point x="355" y="159" type="line"/>
      <point x="580" y="283" type="line"/>
      <point x="546" y="195" type="line"/>
      <point x="576" y="490" type="line"/>
      <point x="594" y="400" type="line"/>
      <point x="408" y="516" type="line"/>
      <point x="573" y="510" type="line"/>
      <point x="194" y="480" type="line"/>
    </contour>
    <contour>
      <point x="309" y="142" type="line"/>
      <point x="421" y="66" type="line"/>
      <point x="377" y="180" type="line"/>
      <point x="364" y="-21" type="line"/>
      <point x="409" y="50" type="line"/>
      <point x="324" y="6" type="line"/>
      <point x="358" y="10" type="line"/>
      <point x="80" y="48" type="line"/>
      <point x="116" y="100" type="line"/>
      <point x="67" y="-173" type="line"/>
      <point x="49" y="-134" type="line"/>
      <point x="355" y="-147" type="line"/>
      <point x="324" y="-152" type="line"/>
      <point x="555" y="-34" type="line"/>
      <point x="517" y="-121" type="line"/>
      <point x="562" y="256" type="line"/>
      <point x="596" y="146" type="line"/>
      <point x="332" y="257" type="line"/>
      <point x="459" y="230" type="line"/>
      <point x="181" y="212" type="line"/>
      <point x="270" y="204" type="line"/>
      <point x="203" y="259" type="line"/>
      <point x="216" y="201" type="line"/>
      <point x="227" y="404" type="line"/>
      <point x="202" y="323" type="line"/>
      <point x="303" y="391" type="line"/>
      <point x="263" y="442" type="line"/>
      <point x="38" y="318" type="line"/>
      <point x="72" y="406" type="line"/>
      <point x="42" y="111" type="line"/>
      <point x="24" y="201" type="line"/>
      <point x="210" y="85" type="line"/>
      <point x="45" y="91" type="line"/>
      <point x="424" y="121" type="line"/>
    </contour>
  </outline>
</glyph>
<glyph name="copyright" format="2">
  <advance width="902"/>
  <unicode hex="00A9"/>
  <outline>
    <contour>
      <point x="839" y="742" type="line"/>
      <point x="939" y="609" type="line"/>
      <point x="319" y="805" type="line"/>
      <point x="505" y="808" type="line"/>
      <point x="-8" y="587" type="line"/>
      <point x="116" y="737" type="line"/>
      <point x="82" y="-27" type="line"/>
      <point x="-18" y="105" type="line"/>
      <point x="602" y="-91" type="line"/>
      <point x="417" y="-98" type="line"/>
      <point x="930" y="123" type="line"/>
      <point x="805" y="-23" type="line"/>
    </contour>
    <contour>
      <point x="769" y="577" type="line"/>
      <point x="724" y="615" type="line"/>
      <point x="722" y="89" type="line"/>
      <point x="748" y="145" type="line"/>
      <point x="469" y="20" type="line"/>
      <point x="555" y="39" type="line"/>
      <point x="152" y="138" type="line"/>
      <point x="197" y="100" type="line"/>
      <point x="199" y="624" type="line"/>
      <point x="174" y="565" type="line"/>
      <point x="454" y="690" type="line"/>
      <point x="367" y="674" type="line"/>
    </contour>
    <contour>
      <point x="650" y="407" type="line"/>
      <point x="596" y="392" type="line"/>
      <point x="652" y="623" type="line"/>
      <point x="684" y="546" type="line"/>
      <point x="409" y="594" type="line"/>
      <point x="559" y="634" type="line"/>
      <point x="213" y="499" type="line"/>
      <point x="302" y="614" type="line"/>
      <point x="292" y="115" type="line"/>
      <point x="276" y="182" type="line"/>
      <point x="534" y="112" type="line"/>
      <point x="408" y="109" type="line"/>
      <point x="668" y="168" type="line"/>
      <point x="627" y="121" type="line"/>
      <point x="593" y="314" type="line"/>
      <point x="627" y="301" type="line"/>
      <point x="441" y="246" type="line"/>
      <point x="508" y="250" type="line"/>
      <point x="399" y="284" type="line"/>
      <point x="433" y="201" type="line"/>
      <point x="440" y="508" type="line"/>
      <point x="401" y="437" type="line"/>
      <point x="484" y="483" type="line"/>
      <point x="405" y="472" type="line"/>
    </contour>
  </outline>
</glyph>
<glyph name="registered" format="2">
  <advance width="412"/>
  <unicode hex="00AE"/>
  <outline>
    <contour>
      <point x="28" y="885" type="line"/>
      <point x="25" y="528" type="line"/>
      <point x="-32" y="600" type="line"/>
      <point x="265" y="488" type="line"/>
      <point x="193" y="484" type="line"/>
      <point x="437" y="592" type="line"/>
      <point x="371" y="522" type="line"/>
      <point x="396" y="881" type="line"/>
      <point x="437" y="809" type="line"/>
      <point x="147" y="923" type="line"/>
      <point x="239" y="929" type="line"/>
      <point x="-32" y="807" type="line"/>
    </contour>
    <contour>
      <point x="97" y="819" type="line"/>
      <point x="50" y="778" type="line"/>
      <point x="222" y="856" type="line"/>
      <point x="149" y="842" type="line"/>
      <point x="355" y="782" type="line"/>
      <point x="321" y="824" type="line"/>
      <point x="317" y="584" type="line"/>
      <point x="353" y="617" type="line"/>
      <point x="195" y="556" type="line"/>
      <point x="263" y="568" type="line"/>
      <point x="54" y="626" type="line"/>
      <point x="83" y="589" type="line"/>
    </contour>
    <contour>
      <point x="249" y="732" type="line"/>
      <point x="182" y="689" type="line"/>
      <point x="182" y="696" type="line"/>
      <point x="190" y="668" type="line"/>
      <point x="183" y="672" type="line"/>
      <point x="270" y="723" type="line"/>
      <point x="262" y="708" type="line"/>
      <point x="275" y="770" type="line"/>
      <point x="289" y="759" type="line"/>
      <point x="194" y="796" type="line"/>
      <point x="214" y="798" type="line"/>
      <point x="173" y="749" type="line"/>
      <point x="170" y="753" type="line"/>
      <point x="245" y="738" type="line"/>
      <point x="227" y="756" type="line"/>
      <point x="225" y="707" type="line"/>
    </contour>
    <contour>
      <point x="142" y="623" type="line"/>
      <point x="139" y="630" type="line"/>
      <point x="196" y="630" type="line"/>
      <point x="189" y="623" type="line"/>
      <point x="194" y="777" type="line"/>
      <point x="202" y="769" type="line"/>
      <point x="152" y="795" type="line"/>
      <point x="159" y="796" type="line"/>
      <point x="135" y="751" type="line"/>
      <point x="133" y="753" type="line"/>
      <point x="170" y="743" type="line"/>
      <point x="153" y="763" type="line"/>
    </contour>
    <contour>
      <point x="211" y="630" type="line"/>
      <point x="280" y="630" type="line"/>
      <point x="273" y="620" type="line"/>
      <point x="276" y="677" type="line"/>
      <point x="285" y="668" type="line"/>
      <point x="237" y="665" type="line"/>
      <point x="263" y="658" type="line"/>
      <point x="233" y="709" type="line"/>
      <point x="200" y="692" type="line"/>
      <point x="226" y="620" type="line"/>
    </contour>
  </outline>
</glyph>
<glyph name="degree" format="2">
  <advance width="261"/>
  <unicode hex="00B0"/>
  <outline>
    <contour>
      <point x="21" y="770" type="line"/>
      <point x="19" y="559" type="line"/>
      <point x="-17" y="604" type="line"/>
      <point x="169" y="528" type="line"/>
      <point x="124" y="525" type="line"/>
      <point x="270" y="599" type="line"/>
      <point x="229" y="555" type="line"/>
      <point x="245" y="767" type="line"/>
      <point x="270" y="722" type="line"/>
      <point x="89" y="800" type="line"/>
      <point x="146" y="804" type="line"/>
      <point x="-17" y="721" type="line"/>
    </contour>
    <contour>
      <point x="67" y="719" type="line"/>
      <point x="197" y="695" type="line"/>
      <point x="173" y="719" type="line"/>
      <point x="176" y="600" type="line"/>
      <point x="197" y="638" type="line"/>
      <point x="111" y="600" type="line"/>
      <point x="198" y="611" type="line"/>
      <point x="69" y="633" type="line"/>
      <point x="83" y="607" type="line"/>
      <point x="95" y="739" type="line"/>
      <point x="58" y="685" type="line"/>
      <point x="144" y="722" type="line"/>
    </contour>
  </outline>
</glyph>
<glyph name="paragraph" format="2">
  <advance width="556"/>
  <unicode hex="00B6"/>
  <outline>
    <contour>
      <point x="414" y="719" type="line"/>
      <point x="393" y="-47" type="line"/>
      <point x="333" y="0" type="line"/>
      <point x="553" y="0" type="line"/>
      <point x="488" y="-47" type="line"/>
      <point x="494" y="719" type="line"/>
      <point x="485" y="121" type="line"/>
      <point x="508" y="788" type="line"/>
      <point x="571" y="742" type="line"/>
      <point x="350" y="742" type="line"/>
      <point x="411" y="788" type="line"/>
      <point x="405" y="121" type="line"/>
    </contour>
    <contour>
      <point x="274" y="363" type="line"/>
      <point x="256" y="382" type="line"/>
      <point x="243" y="-47" type="line"/>
      <point x="184" y="0" type="line"/>
      <point x="404" y="0" type="line"/>
      <point x="339" y="-47" type="line"/>
      <point x="345" y="719" type="line"/>
      <point x="335" y="121" type="line"/>
      <point x="359" y="788" type="line"/>
      <point x="363" y="742" type="line"/>
      <point x="301" y="742" type="line"/>
      <point x="56" y="751" type="line"/>
      <point x="179" y="762" type="line"/>
      <point x="-4" y="647" type="line"/>
      <point x="38" y="729" type="line"/>
      <point x="22" y="377" type="line"/>
      <point x="-17" y="468" type="line"/>
      <point x="201" y="331" type="line"/>
      <point x="124" y="353" type="line"/>
    </contour>
  </outline>
</glyph>
<glyph name="questiondown" format="2">
  <advance width="434"/>
  <unicode hex="00BF"/>
  <outline>
    <contour>
      <point x="384" y="367" type="line"/>
      <point x="401" y="600" type="line"/>
      <point x="437" y="569" type="line"/>
      <point x="182" y="563" type="line"/>
      <point x="231" y="594" type="line"/>
      <point x="222" y="371" type="line"/>
      <point x="184" y="416" type="line"/>
      <point x="406" y="412" type="line"/>
    </contour>
    <contour>
      <point x="152" y="-100" type="line"/>
      <point x="178" y="159" type="line"/>
      <point x="121" y="59" type="line"/>
      <point x="233" y="127" type="line"/>
      <point x="110" y="100" type="line"/>
      <point x="377" y="78" type="line"/>
      <point x="235" y="51" type="line"/>
      <point x="423" y="166" type="line"/>
      <point x="370" y="80" type="line"/>
      <point x="379" y="362" type="line"/>
      <point x="420" y="338" type="line"/>
      <point x="189" y="342" type="line"/>
      <point x="230" y="368" type="line"/>
      <point x="211" y="171" type="line"/>
      <point x="244" y="247" type="line"/>
      <point x="177" y="201" type="line"/>
      <point x="262" y="212" type="line"/>
      <point x="34" y="248" type="line"/>
      <point x="217" y="274" type="line"/>
      <point x="-65" y="90" type="line"/>
      <point x="25" y="265" type="line"/>
      <point x="-23" y="-192" type="line"/>
      <point x="-57" y="-69" type="line"/>
      <point x="233" y="-239" type="line"/>
      <point x="124" y="-227" type="line"/>
      <point x="466" y="-210" type="line"/>
      <point x="425" y="-250" type="line"/>
      <point x="398" y="23" type="line"/>
      <point x="427" y="-27" type="line"/>
      <point x="115" y="-63" type="line"/>
      <point x="240" y="-69" type="line"/>
      <point x="135" y="16" type="line"/>
    </contour>
  </outline>
</glyph>
<glyph name="AE" format="2">
  <advance width="844"/>
  <unicode hex="00C6"/>
  <outline>
    <contour>
      <point x="122" y="577" type="line"/>
      <point x="9" y="-41" type="line"/>
      <point x="-25" y="0" type="line"/>
      <point x="253" y="0" type="line"/>
      <point x="208" y="-41" type="line"/>
      <point x="289" y="642" type="line"/>
      <point x="323" y="653" type="line"/>
      <point x="149" y="558" type="line"/>
      <point x="173" y="619" type="line"/>
      <point x="201" y="526" type="line"/>
      <point x="228" y="585" type="line"/>
      <point x="161" y="551" type="line"/>
      <point x="68" y="494" type="line"/>
    </contour>
    <contour>
      <point x="176" y="335" type="line"/>
      <point x="177" y="233" type="line"/>
      <point x="488" y="312" type="line"/>
      <point x="491" y="416" type="line"/>
    </contour>
    <contour>
      <point x="559" y="439" type="line"/>
      <point x="546" y="312" type="line"/>
      <point x="787" y="309" type="line"/>
      <point x="756" y="277" type="line"/>
      <point x="771" y="512" type="line"/>
      <point x="800" y="455" type="line"/>
    </contour>
    <contour>
      <point x="458" y="590" type="line"/>
      <point x="350" y="621" type="line"/>
      <point x="428" y="555" type="line"/>
      <point x="410" y="643" type="line"/>
      <point x="373" y="-51" type="line"/>
      <point x="332" y="80" type="line"/>
      <point x="439" y="-52" type="line"/>
      <point x="343" y="0" type="line"/>
      <point x="887" y="0" type="line"/>
      <point x="815" y="-49" type="line"/>
      <point x="833" y="227" type="line"/>
      <point x="914" y="185" type="line"/>
      <point x="518" y="158" type="line"/>
      <point x="558" y="123" type="line"/>
      <point x="571" y="329" type="line"/>
      <point x="576" y="419" type="line"/>
      <point x="590" y="640" type="line"/>
      <point x="536" y="541" type="line"/>
      <point x="652" y="606" type="line"/>
      <point x="565" y="582" type="line"/>
      <point x="863" y="556" type="line"/>
      <point x="819" y="536" type="line"/>
      <point x="874" y="808" type="line"/>
      <point x="942" y="742" type="line"/>
      <point x="544" y="752" type="line"/>
      <point x="721" y="808" type="line"/>
      <point x="452" y="678" type="line"/>
      <point x="563" y="667" type="line"/>
      <point x="398" y="793" type="line"/>
      <point x="587" y="742" type="line"/>
      <point x="-32" y="745" type="line"/>
      <point x="38" y="791" type="line"/>
      <point x="20" y="515" type="line"/>
      <point x="-58" y="552" type="line"/>
    </contour>
  </outline>
</glyph>
<glyph name="Eth" format="2">
  <advance width="649"/>
  <unicode hex="00D0"/>
  <anchor x="352" y="742" name="top"/>
  <outline>
    <contour>
      <point x="270" y="718" type="line"/>
      <point x="176" y="619" type="line"/>
      <point x="204" y="526" type="line"/>
      <point x="231" y="586" type="line"/>
      <point x="164" y="552" type="line"/>
      <point x="71" y="495" type="line"/>
      <point x="85" y="540" type="line"/>
      <point x="79" y="406" type="line"/>
      <point x="75" y="339" type="line"/>
      <point x="41" y="-40" type="line"/>
      <point x="17" y="49" type="line"/>
      <point x="455" y="-38" type="line"/>
      <point x="317" y="-59" type="line"/>
      <point x="711" y="162" type="line"/>
      <point x="563" y="-49" type="line"/>
      <point x="645" y="809" type="line"/>
      <point x="674" y="573" type="line"/>
      <point x="413" y="772" type="line"/>
      <point x="609" y="742" type="line"/>
      <point x="-32" y="745" type="line"/>
      <point x="38" y="791" type="line"/>
      <point x="20" y="515" type="line"/>
      <point x="-58" y="552" type="line"/>
      <point x="480" y="592" type="line"/>
      <point x="359" y="609" type="line"/>
      <point x="454" y="531" type="line"/>
      <point x="432" y="643" type="line"/>
      <point x="414" y="74" type="line"/>
      <point x="445" y="189" type="line"/>
      <point x="365" y="130" type="line"/>
      <point x="499" y="149" type="line"/>
      <point x="208" y="158" type="line"/>
      <point x="248" y="109" type="line"/>
    </contour>
    <contour>
      <point x="24" y="267" type="line"/>
      <point x="-45" y="326" type="line"/>
      <point x="243" y="332" type="line"/>
      <point x="421" y="328" type="line"/>
      <point x="343" y="289" type="line"/>
      <point x="356" y="465" type="line"/>
      <point x="429" y="417" type="line"/>
      <point x="199" y="414" type="line"/>
      <point x="-56" y="420" type="line"/>
      <point x="37" y="465" type="line"/>
    </contour>
  </outline>
</glyph>
<glyph name="Oslash" format="2">
  <advance width="693"/>
  <unicode hex="00D8"/>
  <outline>
    <contour>
      <point x="633" y="834" type="line"/>
      <point x="511" y="658" type="line"/>
      <point x="419" y="555" type="line"/>
      <point x="258" y="326" type="line"/>
      <point x="225" y="267" type="line"/>
      <point x="301" y="291" type="line"/>
      <point x="192" y="301" type="line"/>
      <point x="258" y="340" type="line"/>
      <point x="101" y="116" type="line"/>
      <point x="-22" y="-37" type="line"/>
      <point x="-21" y="27" type="line"/>
      <point x="151" y="-42" type="line"/>
      <point x="68" y="-89" type="line"/>
      <point x="191" y="89" type="line"/>
      <point x="280" y="190" type="line"/>
      <point x="426" y="398" type="line"/>
      <point x="465" y="456" type="line"/>
      <point x="385" y="432" type="line"/>
      <point x="495" y="422" type="line"/>
      <point x="429" y="383" type="line"/>
      <point x="601" y="630" type="line"/>
      <point x="722" y="781" type="line"/>
      <point x="719" y="713" type="line"/>
      <point x="551" y="791" type="line"/>
    </contour>
    <contour>
      <point x="73" y="742" type="line"/>
      <point x="38" y="14" type="line"/>
      <point x="-85" y="149" type="line"/>
      <point x="480" y="-47" type="line"/>
      <point x="324" y="-55" type="line"/>
      <point x="736" y="150" type="line"/>
      <point x="586" y="0" type="line"/>
      <point x="668" y="727" type="line"/>
      <point x="753" y="597" type="line"/>
      <point x="213" y="796" type="line"/>
      <point x="403" y="808" type="line"/>
      <point x="-71" y="573" type="line"/>
    </contour>
    <contour>
      <point x="199" y="589" type="line"/>
      <point x="560" y="516" type="line"/>
      <point x="453" y="588" type="line"/>
      <point x="439" y="110" type="line"/>
      <point x="510" y="232" type="line"/>
      <point x="361" y="147" type="line"/>
      <point x="472" y="167" type="line"/>
      <point x="150" y="223" type="line"/>
      <point x="244" y="120" type="line"/>
      <point x="230" y="634" type="line"/>
      <point x="162" y="521" type="line"/>
      <point x="311" y="605" type="line"/>
    </contour>
  </outline>
</glyph>
<glyph name="germandbls" format="2">
  <advance width="648"/>
  <unicode hex="00DF"/>
  <outline>
    <contour>
      <point x="301" y="376" type="line"/>
      <point x="333" y="552" type="line"/>
      <point x="314" y="272" type="line"/>
      <point x="285" y="332" type="line"/>
      <point x="516" y="223" type="line"/>
      <point x="468" y="306" type="line"/>
      <point x="453" y="89" type="line"/>
      <point x="501" y="175" type="line"/>
      <point x="410" y="128" type="line"/>
      <point x="544" y="127" type="line"/>
      <point x="279" y="181" type="line"/>
      <point x="317" y="235" type="line"/>
      <point x="255" y="-53" type="line"/>
      <point x="234" y="7" type="line"/>
      <point x="554" y="-20" type="line"/>
      <point x="407" y="-23" type="line"/>
      <point x="653" y="103" type="line"/>
      <point x="593" y="-18" type="line"/>
      <point x="642" y="387" type="line"/>
      <point x="710" y="290" type="line"/>
      <point x="449" y="413" type="line"/>
      <point x="476" y="383" type="line"/>
      <point x="481" y="533" type="line"/>
      <point x="409" y="364" type="line"/>
      <point x="677" y="667" type="line"/>
      <point x="584" y="460" type="line"/>
      <point x="620" y="744" type="line"/>
      <point x="642" y="700" type="line"/>
      <point x="173" y="894" type="line"/>
      <point x="366" y="861" type="line"/>
      <point x="-20" y="668" type="line"/>
      <point x="116" y="795" type="line"/>
      <point x="32" y="-323" type="line"/>
      <point x="-9" y="-220" type="line"/>
      <point x="277" y="-220" type="line"/>
      <point x="229" y="-323" type="line"/>
      <point x="248" y="706" type="line"/>
      <point x="210" y="641" type="line"/>
      <point x="334" y="713" type="line"/>
      <point x="239" y="676" type="line"/>
      <point x="465" y="605" type="line"/>
      <point x="447" y="634" type="line"/>
      <point x="440" y="482" type="line"/>
      <point x="463" y="600" type="line"/>
    </contour>
  </outline>
</glyph>
<glyph name="ae" format="2">
  <advance width="823"/>
  <unicode hex="00E6"/>
  <outline>
    <contour>
      <point x="95" y="211" type="line"/>
      <point x="384" y="398" type="line"/>
      <point x="366" y="460" type="line"/>
      <point x="-25" y="231" type="line"/>
      <point x="78" y="318" type="line"/>
      <point x="4" y="49" type="line"/>
      <point x="-88" y="138" type="line"/>
      <point x="334" y="-39" type="line"/>
      <point x="262" y="-38" type="line"/>
      <point x="522" y="147" type="line"/>
      <point x="537" y="95" type="line"/>
      <point x="136" y="184" type="line"/>
      <point x="218" y="155" type="line"/>
      <point x="228" y="352" type="line"/>
    </contour>
    <contour>
      <point x="381" y="535" type="line"/>
      <point x="555" y="508" type="line"/>
      <point x="342" y="642" type="line"/>
      <point x="516" y="600" type="line"/>
      <point x="17" y="603" type="line"/>
      <point x="91" y="652" type="line"/>
      <point x="72" y="358" type="line"/>
      <point x="-11" y="411" type="line"/>
      <point x="387" y="467" type="line"/>
      <point x="319" y="493" type="line"/>
      <point x="372" y="430" type="line"/>
      <point x="354" y="500" type="line"/>
      <point x="354" y="441" type="line"/>
      <point x="345" y="431" type="line"/>
      <point x="327" y="69" type="line"/>
      <point x="283" y="97" type="line"/>
      <point x="598" y="-40" type="line"/>
      <point x="422" y="-10" type="line"/>
      <point x="806" y="0" type="line"/>
      <point x="753" y="-32" type="line"/>
      <point x="746" y="210" type="line"/>
      <point x="780" y="183" type="line"/>
      <point x="561" y="157" type="line"/>
      <point x="653" y="148" type="line"/>
      <point x="467" y="190" type="line"/>
      <point x="498" y="109" type="line"/>
      <point x="508" y="477" type="line"/>
      <point x="464" y="415" type="line"/>
      <point x="565" y="472" type="line"/>
      <point x="483" y="455" type="line"/>
      <point x="684" y="412" type="line"/>
      <point x="602" y="454" type="line"/>
      <point x="592" y="257" type="line"/>
      <point x="725" y="390" type="line"/>
      <point x="424" y="223" type="line"/>
      <point x="438" y="160" type="line"/>
      <point x="844" y="362" type="line"/>
      <point x="742" y="291" type="line"/>
      <point x="816" y="560" type="line"/>
      <point x="908" y="468" type="line"/>
      <point x="496" y="647" type="line"/>
      <point x="633" y="656" type="line"/>
    </contour>
  </outline>
</glyph>
<glyph name="eth" format="2">
  <advance width="600"/>
  <unicode hex="00F0"/>
  <outline>
    <contour>
      <point x="374" y="525" type="line"/>
      <point x="363" y="123" type="line"/>
      <point x="413" y="183" type="line"/>
      <point x="312" y="126" type="line"/>
      <point x="394" y="144" type="line"/>
      <point x="156" y="204" type="line"/>
      <point x="225" y="130" type="line"/>
      <point x="215" y="477" type="line"/>
      <point x="179" y="380" type="line"/>
      <point x="262" y="445" type="line"/>
      <point x="163" y="425" type="line"/>
      <point x="415" y="395" type="line"/>
      <point x="463" y="511" type="line"/>
      <point x="138" y="614" type="line"/>
      <point x="338" y="641" type="line"/>
      <point x="-55" y="447" type="line"/>
      <point x="64" y="608" type="line"/>
      <point x="36" y="5" type="line"/>
      <point x="-66" y="133" type="line"/>
      <point x="393" y="-46" type="line"/>
      <point x="262" y="-53" type="line"/>
      <point x="633" y="118" type="line"/>
      <point x="506" y="-7" type="line"/>
      <point x="573" y="641" type="line"/>
      <point x="595" y="446" type="line"/>
      <point x="421" y="866" type="line"/>
      <point x="466" y="859" type="line"/>
      <point x="244" y="748" type="line"/>
      <point x="237" y="817" type="line"/>
      <point x="386" y="532" type="line"/>
      <point x="435" y="580" type="line"/>
      <point x="330" y="501" type="line"/>
    </contour>
    <contour>
      <point x="305" y="534" type="line"/>
      <point x="185" y="539" type="line"/>
      <point x="480" y="703" type="line"/>
      <point x="654" y="792" type="line"/>
      <point x="567" y="690" type="line"/>
      <point x="498" y="848" type="line"/>
      <point x="600" y="868" type="line"/>
      <point x="405" y="763" type="line"/>
      <point x="127" y="621" type="line"/>
      <point x="218" y="727" type="line"/>
    </contour>
  </outline>
</glyph>
<glyph name="oslash" format="2">
  <advance width="564"/>
  <unicode hex="00F8"/>
  <outline>
    <contour>
      <point x="59" y="571" type="line"/>
      <point x="33" y="5" type="line"/>
      <point x="-63" y="125" type="line"/>
      <point x="368" y="-43" type="line"/>
      <point x="245" y="-50" type="line"/>
      <point x="593" y="111" type="line"/>
      <point x="474" y="-7" type="line"/>
      <point x="537" y="560" type="line"/>
      <point x="604" y="443" type="line"/>
      <point x="163" y="613" type="line"/>
      <point x="316" y="622" type="line"/>
      <point x="-53" y="439" type="line"/>
    </contour>
    <contour>
      <point x="177" y="427" type="line"/>
      <point x="423" y="369" type="line"/>
      <point x="349" y="419" type="line"/>
      <point x="340" y="115" type="line"/>
      <point x="387" y="172" type="line"/>
      <point x="292" y="118" type="line"/>
      <point x="369" y="135" type="line"/>
      <point x="146" y="182" type="line"/>
      <point x="210" y="122" type="line"/>
      <point x="201" y="448" type="line"/>
      <point x="158" y="389" type="line"/>
      <point x="253" y="442" type="line"/>
    </contour>
    <contour>
      <point x="510" y="635" type="line"/>
      <point x="414" y="500" type="line"/>
      <point x="335" y="408" type="line"/>
      <point x="222" y="245" type="line"/>
      <point x="213" y="229" type="line"/>
      <point x="194" y="231" type="line"/>
      <point x="97" y="85" type="line"/>
      <point x="6" y="-31" type="line"/>
      <point x="1" y="18" type="line"/>
      <point x="131" y="-36" type="line"/>
      <point x="55" y="-71" type="line"/>
      <point x="152" y="65" type="line"/>
      <point x="223" y="147" type="line"/>
      <point x="331" y="303" type="line"/>
      <point x="342" y="318" type="line"/>
      <point x="361" y="316" type="line"/>
      <point x="470" y="480" type="line"/>
      <point x="560" y="594" type="line"/>
      <point x="563" y="543" type="line"/>
      <point x="435" y="602" type="line"/>
    </contour>
  </outline>
</glyph>
<glyph name="thorn" format="2">
  <advance width="569"/>
  <unicode hex="00FE"/>
  <outline>
    <contour>
      <point x="178" y="152" type="line"/>
      <point x="133" y="60" type="line"/>
      <point x="432" y="-52" type="line"/>
      <point x="217" y="-76" type="line"/>
      <point x="624" y="112" type="line"/>
      <point x="500" y="-46" type="line"/>
      <point x="535" y="548" type="line"/>
      <point x="625" y="490" type="line"/>
      <point x="239" y="598" type="line"/>
      <point x="309" y="597" type="line"/>
      <point x="138" y="407" type="line"/>
      <point x="123" y="443" type="line"/>
      <point x="415" y="415" type="line"/>
      <point x="355" y="458" type="line"/>
      <point x="363" y="77" type="line"/>
      <point x="400" y="163" type="line"/>
      <point x="322" y="102" type="line"/>
      <point x="415" y="121" type="line"/>
    </contour>
    <contour>
      <point x="30" y="-303" type="line"/>
      <point x="-9" y="-207" type="line"/>
      <point x="259" y="-207" type="line"/>
      <point x="217" y="-303" type="line"/>
      <point x="216" y="65" type="line"/>
      <point x="179" y="4" type="line"/>
      <point x="259" y="49" type="line"/>
      <point x="219" y="94" type="line"/>
      <point x="227" y="503" type="line"/>
      <point x="222" y="506" type="line"/>
      <point x="249" y="796" type="line"/>
      <point x="295" y="685" type="line"/>
      <point x="188" y="817" type="line"/>
      <point x="267" y="770" type="line"/>
      <point x="-47" y="773" type="line"/>
      <point x="23" y="819" type="line"/>
      <point x="6" y="543" type="line"/>
      <point x="-73" y="589" type="line"/>
      <point x="158" y="634" type="line"/>
      <point x="87" y="668" type="line"/>
    </contour>
  </outline>
</glyph>
<glyph name="eogonek" format="2">
  <advance width="502"/>
  <unicode hex="0119"/>
  <anchor x="208" y="0" name="bottom"/>
  <anchor x="378" y="0" name="ogonek"/>
  <anchor x="255" y="563" name="top"/>
  <outline>
    <contour>
      <point x="458" y="17" type="line"/>
      <point x="437" y="-30" type="line"/>
      <point x="430" y="197" type="line"/>
      <point x="462" y="172" type="line"/>
      <point x="256" y="147" type="line"/>
      <point x="343" y="139" type="line"/>
      <point x="168" y="171" type="line"/>
      <point x="197" y="102" type="line"/>
      <point x="207" y="448" type="line"/>
      <point x="165" y="390" type="line"/>
      <point x="260" y="443" type="line"/>
      <point x="183" y="427" type="line"/>
      <point x="372" y="387" type="line"/>
      <point x="295" y="426" type="line"/>
      <point x="285" y="241" type="line"/>
      <point x="410" y="366" type="line"/>
      <point x="128" y="209" type="line"/>
      <point x="141" y="150" type="line"/>
      <point x="522" y="340" type="line"/>
      <point x="426" y="273" type="line"/>
      <point x="496" y="526" type="line"/>
      <point x="582" y="439" type="line"/>
      <point x="195" y="608" type="line"/>
      <point x="324" y="616" type="line"/>
      <point x="-45" y="439" type="line"/>
      <point x="67" y="571" type="line"/>
      <point x="22" y="5" type="line"/>
      <point x="-19" y="98" type="line"/>
      <point x="291" y="-38" type="line"/>
      <point x="126" y="-9" type="line"/>
      <point x="344" y="-2" type="line"/>
      <point x="322" y="22" type="line"/>
      <point x="350" y="-36" type="line"/>
      <point x="361" y="11" type="line"/>
      <point x="279" y="-40" type="line"/>
      <point x="286" y="14" type="line"/>
      <point x="286" y="-186" type="line"/>
      <point x="273" y="-144" type="line"/>
      <point x="380" y="-208" type="line"/>
      <point x="341" y="-213" type="line"/>
      <point x="475" y="-177" type="line"/>
      <point x="463" y="-192" type="line"/>
      <point x="431" y="-99" type="line"/>
      <point x="455" y="-104" type="line"/>
      <point x="353" y="-139" type="line"/>
      <point x="395" y="-135" type="line"/>
      <point x="336" y="-100" type="line"/>
      <point x="352" y="-129" type="line"/>
      <point x="357" y="6" type="line"/>
      <point x="340" y="-70" type="line"/>
    </contour>
  </outline>
</glyph>
<glyph name="idotless" format="2">
  <advance width="309"/>
  <unicode hex="0131"/>
  <anchor x="200" y="0" name="ogonek"/>
  <anchor x="162" y="563" name="top"/>
  <outline>
    <contour>
      <point x="230" y="121" type="line"/>
      <point x="269" y="620" type="line"/>
      <point x="304" y="484" type="line"/>
      <point x="197" y="615" type="line"/>
      <point x="255" y="563" type="line"/>
      <point x="-50" y="566" type="line"/>
      <point x="26" y="612" type="line"/>
      <point x="8" y="336" type="line"/>
      <point x="-76" y="382" type="line"/>
      <point x="155" y="427" type="line"/>
      <point x="97" y="461" type="line"/>
      <point x="41" y="-5" type="line"/>
      <point x="21" y="74" type="line"/>
      <point x="261" y="-37" type="line"/>
      <point x="201" y="-59" type="line"/>
      <point x="321" y="159" type="line"/>
      <point x="345" y="124" type="line"/>
      <point x="180" y="168" type="line"/>
    </contour>
  </outline>
</glyph>
<glyph name="IJ" format="2">
  <advance width="782"/>
  <unicode hex="0132"/>
  <anchor x="581" y="742" name="top"/>
  <outline>
    <component base="I"/>
    <contour>
      <point x="301" y="203" type="line"/>
      <point x="338" y="231" type="line"/>
      <point x="279" y="-45" type="line"/>
      <point x="232" y="28" type="line"/>
      <point x="656" y="-33" type="line"/>
      <point x="500" y="-43" type="line"/>
      <point x="843" y="155" type="line"/>
      <point x="708" y="36" type="line"/>
      <point x="762" y="793" type="line"/>
      <point x="802" y="662" type="line"/>
      <point x="695" y="793" type="line"/>
      <point x="788" y="742" type="line"/>
      <point x="309" y="745" type="line"/>
      <point x="378" y="791" type="line"/>
      <point x="361" y="515" type="line"/>
      <point x="283" y="557" type="line"/>
      <point x="631" y="581" type="line"/>
      <point x="562" y="654" type="line"/>
      <point x="539" y="101" type="line"/>
      <point x="636" y="223" type="line"/>
      <point x="486" y="139" type="line"/>
      <point x="562" y="141" type="line"/>
    </contour>
  </outline>
</glyph>
<glyph name="Lslash" format="2">
  <advance width="483"/>
  <unicode hex="0141"/>
  <outline>
    <component base="L"/>
    <contour>
      <point x="12" y="179" type="line"/>
      <point x="-76" y="210" type="line"/>
      <point x="220" y="324" type="line"/>
      <point x="457" y="407" type="line"/>
      <point x="352" y="327" type="line"/>
      <point x="304" y="496" type="line"/>
      <point x="435" y="492" type="line"/>
      <point x="158" y="390" type="line"/>
      <point x="-119" y="294" type="line"/>
      <point x="-43" y="370" type="line"/>
    </contour>
  </outline>
</glyph>
<glyph name="OE" format="2">
  <advance width="878"/>
  <unicode hex="0152"/>
  <outline>
    <contour>
      <point x="555" y="439" type="line"/>
      <point x="543" y="312" type="line"/>
      <point x="783" y="309" type="line"/>
      <point x="752" y="277" type="line"/>
      <point x="767" y="512" type="line"/>
      <point x="796" y="455" type="line"/>
    </contour>
    <contour>
      <point x="189" y="589" type="line"/>
      <point x="532" y="513" type="line"/>
      <point x="424" y="588" type="line"/>
      <point x="410" y="110" type="line"/>
      <point x="491" y="232" type="line"/>
      <point x="342" y="147" type="line"/>
      <point x="454" y="167" type="line"/>
      <point x="149" y="225" type="line"/>
      <point x="234" y="120" type="line"/>
      <point x="220" y="634" type="line"/>
      <point x="151" y="521" type="line"/>
      <point x="301" y="605" type="line"/>
    </contour>
    <contour>
      <point x="897" y="556" type="line"/>
      <point x="853" y="536" type="line"/>
      <point x="908" y="808" type="line"/>
      <point x="976" y="742" type="line"/>
      <point x="578" y="752" type="line"/>
      <point x="755" y="808" type="line"/>
      <point x="433" y="653" type="line"/>
      <point x="592" y="646" type="line"/>
      <point x="185" y="796" type="line"/>
      <point x="375" y="808" type="line"/>
      <point x="-82" y="573" type="line"/>
      <point x="63" y="742" type="line"/>
      <point x="28" y="14" type="line"/>
      <point x="-95" y="149" type="line"/>
      <point x="386" y="-17" type="line"/>
      <point x="255" y="0" type="line"/>
      <point x="921" y="0" type="line"/>
      <point x="849" y="-49" type="line"/>
      <point x="867" y="227" type="line"/>
      <point x="948" y="185" type="line"/>
      <point x="552" y="158" type="line"/>
      <point x="592" y="123" type="line"/>
      <point x="605" y="329" type="line"/>
      <point x="609" y="419" type="line"/>
      <point x="624" y="640" type="line"/>
      <point x="570" y="541" type="line"/>
      <point x="686" y="606" type="line"/>
      <point x="599" y="582" type="line"/>
    </contour>
  </outline>
</glyph>
<glyph name="oe" format="2">
  <advance width="851"/>
  <unicode hex="0153"/>
  <outline>
    <contour>
      <point x="187" y="455" type="line"/>
      <point x="450" y="383" type="line"/>
      <point x="371" y="446" type="line"/>
      <point x="361" y="123" type="line"/>
      <point x="411" y="183" type="line"/>
      <point x="310" y="126" type="line"/>
      <point x="392" y="144" type="line"/>
      <point x="154" y="204" type="line"/>
      <point x="223" y="130" type="line"/>
      <point x="213" y="477" type="line"/>
      <point x="167" y="414" type="line"/>
      <point x="268" y="471" type="line"/>
    </contour>
    <contour>
      <point x="353" y="79" type="line"/>
      <point x="626" y="-40" type="line"/>
      <point x="450" y="-10" type="line"/>
      <point x="834" y="0" type="line"/>
      <point x="781" y="-32" type="line"/>
      <point x="774" y="210" type="line"/>
      <point x="808" y="183" type="line"/>
      <point x="589" y="157" type="line"/>
      <point x="681" y="148" type="line"/>
      <point x="495" y="190" type="line"/>
      <point x="526" y="109" type="line"/>
      <point x="536" y="477" type="line"/>
      <point x="492" y="415" type="line"/>
      <point x="593" y="472" type="line"/>
      <point x="511" y="455" type="line"/>
      <point x="712" y="412" type="line"/>
      <point x="630" y="454" type="line"/>
      <point x="620" y="257" type="line"/>
      <point x="753" y="390" type="line"/>
      <point x="452" y="223" type="line"/>
      <point x="466" y="160" type="line"/>
      <point x="872" y="362" type="line"/>
      <point x="770" y="291" type="line"/>
      <point x="844" y="560" type="line"/>
      <point x="936" y="468" type="line"/>
      <point x="524" y="647" type="line"/>
      <point x="661" y="656" type="line"/>
      <point x="409" y="535" type="line"/>
      <point x="508" y="524" type="line"/>
      <point x="173" y="653" type="line"/>
      <point x="336" y="662" type="line"/>
      <point x="-57" y="468" type="line"/>
      <point x="62" y="608" type="line"/>
      <point x="34" y="5" type="line"/>
      <point x="-68" y="133" type="line"/>
      <point x="391" y="-46" type="line"/>
      <point x="260" y="-53" type="line"/>
      <point x="563" y="89" type="line"/>
    </contour>
  </outline>
</glyph>
<glyph name="eturned" format="2">
  <advance width="510"/>
  <unicode hex="01DD"/>
  <outline>
    <contour>
      <point x="318" y="136" type="line"/>
      <point x="130" y="177" type="line"/>
      <point x="207" y="137" type="line"/>
      <point x="216" y="322" type="line"/>
      <point x="91" y="197" type="line"/>
      <point x="374" y="354" type="line"/>
      <point x="361" y="413" type="line"/>
      <point x="-21" y="223" type="line"/>
      <point x="75" y="290" type="line"/>
      <point x="6" y="38" type="line"/>
      <point x="-81" y="124" type="line"/>
      <point x="306" y="-44" type="line"/>
      <point x="177" y="-53" type="line"/>
      <point x="546" y="124" type="line"/>
      <point x="435" y="-8" type="line"/>
      <point x="480" y="559" type="line"/>
      <point x="520" y="466" type="line"/>
      <point x="210" y="601" type="line"/>
      <point x="376" y="573" type="line"/>
      <point x="15" y="563" type="line"/>
      <point x="65" y="593" type="line"/>
      <point x="71" y="366" type="line"/>
      <point x="39" y="392" type="line"/>
      <point x="245" y="416" type="line"/>
      <point x="159" y="424" type="line"/>
      <point x="333" y="393" type="line"/>
      <point x="304" y="461" type="line"/>
      <point x="295" y="115" type="line"/>
      <point x="336" y="174" type="line"/>
      <point x="241" y="120" type="line"/>
    </contour>
  </outline>
</glyph>
<glyph name="jdotless" format="2">
  <advance width="315"/>
  <unicode hex="0237"/>
  <anchor x="170" y="600" name="top"/>
  <outline>
    <contour>
      <point x="289" y="-47" type="line"/>
      <point x="243" y="-128" type="line"/>
      <point x="284" y="650" type="line"/>
      <point x="321" y="515" type="line"/>
      <point x="207" y="655" type="line"/>
      <point x="269" y="600" type="line"/>
      <point x="-56" y="603" type="line"/>
      <point x="25" y="652" type="line"/>
      <point x="6" y="358" type="line"/>
      <point x="-84" y="407" type="line"/>
      <point x="162" y="455" type="line"/>
      <point x="101" y="481" type="line"/>
      <point x="55" y="-188" type="line"/>
      <point x="86" y="-124" type="line"/>
      <point x="-46" y="-271" type="line"/>
      <point x="-25" y="-183" type="line"/>
      <point x="83" y="-275" type="line"/>
      <point x="-35" y="-299" type="line"/>
    </contour>
  </outline>
</glyph>
<glyph name="gravecomb" format="2">
  <advance width="294"/>
  <unicode hex="0300"/>
  <anchor x="168" y="563" name="_top"/>
  <outline>
    <contour>
      <point x="27" y="779" type="line"/>
      <point x="67" y="821" type="line"/>
      <point x="36" y="734" type="line"/>
      <point x="26" y="802" type="line"/>
      <point x="220" y="577" type="line"/>
      <point x="126" y="607" type="line"/>
      <point x="272" y="668" type="line"/>
      <point x="266" y="604" type="line"/>
      <point x="168" y="833" type="line"/>
      <point x="208" y="798" type="line"/>
    </contour>
  </outline>
</glyph>
<glyph name="tildecomb" format="2">
  <advance width="441"/>
  <unicode hex="0303"/>
  <anchor x="221" y="600" name="_top"/>
  <outline>
    <contour>
      <point x="204" y="761" type="line"/>
      <point x="128" y="768" type="line"/>
      <point x="304" y="627" type="line"/>
      <point x="241" y="641" type="line"/>
      <point x="411" y="775" type="line"/>
      <point x="411" y="739" type="line"/>
      <point x="313" y="841" type="line"/>
      <point x="383" y="879" type="line"/>
      <point x="238" y="729" type="line"/>
      <point x="307" y="722" type="line"/>
      <point x="139" y="863" type="line"/>
      <point x="201" y="849" type="line"/>
      <point x="31" y="715" type="line"/>
      <point x="31" y="750" type="line"/>
      <point x="129" y="648" type="line"/>
      <point x="59" y="611" type="line"/>
    </contour>
  </outline>
</glyph>
<glyph name="macroncomb" format="2">
  <advance width="433"/>
  <unicode hex="0304"/>
  <anchor x="216" y="600" name="_top"/>
  <outline>
    <contour>
      <point x="46" y="631" type="line"/>
      <point x="-31" y="694" type="line"/>
      <point x="275" y="700" type="line"/>
      <point x="465" y="696" type="line"/>
      <point x="373" y="655" type="line"/>
      <point x="387" y="842" type="line"/>
      <point x="473" y="790" type="line"/>
      <point x="229" y="789" type="line"/>
      <point x="-43" y="794" type="line"/>
      <point x="60" y="842" type="line"/>
    </contour>
  </outline>
</glyph>
<glyph name="brevecomb" format="2">
  <advance width="379"/>
  <unicode hex="0306"/>
  <anchor x="192" y="600" name="_top"/>
  <outline>
    <contour>
      <point x="24" y="719" type="line"/>
      <point x="224" y="667" type="line"/>
      <point x="178" y="664" type="line"/>
      <point x="332" y="721" type="line"/>
      <point x="305" y="705" type="line"/>
      <point x="335" y="830" type="line"/>
      <point x="359" y="806" type="line"/>
      <point x="190" y="811" type="line"/>
      <point x="245" y="858" type="line"/>
      <point x="235" y="744" type="line"/>
      <point x="292" y="787" type="line"/>
      <point x="147" y="721" type="line"/>
      <point x="251" y="744" type="line"/>
      <point x="110" y="767" type="line"/>
      <point x="147" y="733" type="line"/>
      <point x="135" y="845" type="line"/>
      <point x="180" y="811" type="line"/>
      <point x="23" y="806" type="line"/>
      <point x="46" y="822" type="line"/>
      <point x="84" y="680" type="line"/>
    </contour>
  </outline>
</glyph>
<glyph name="dotaccentcomb" format="2">
  <advance width="288"/>
  <unicode hex="0307"/>
  <anchor x="133" y="600" name="_top"/>
  <outline>
    <contour>
      <point x="206" y="621" type="line"/>
      <point x="243" y="869" type="line"/>
      <point x="277" y="836" type="line"/>
      <point x="6" y="830" type="line"/>
      <point x="58" y="863" type="line"/>
      <point x="48" y="625" type="line"/>
      <point x="8" y="673" type="line"/>
      <point x="244" y="665" type="line"/>
    </contour>
  </outline>
</glyph>
<glyph name="dieresiscomb" format="2">
  <advance width="465"/>
  <unicode hex="0308"/>
  <anchor x="221" y="563" name="_top"/>
  <outline>
    <contour>
      <point x="185" y="594" type="line"/>
      <point x="215" y="808" type="line"/>
      <point x="246" y="780" type="line"/>
      <point x="12" y="775" type="line"/>
      <point x="57" y="804" type="line"/>
      <point x="48" y="598" type="line"/>
      <point x="14" y="638" type="line"/>
      <point x="218" y="634" type="line"/>
    </contour>
    <contour>
      <point x="389" y="594" type="line"/>
      <point x="419" y="808" type="line"/>
      <point x="450" y="780" type="line"/>
      <point x="216" y="775" type="line"/>
      <point x="261" y="804" type="line"/>
      <point x="252" y="598" type="line"/>
      <point x="218" y="638" type="line"/>
      <point x="422" y="634" type="line"/>
    </contour>
  </outline>
</glyph>
<glyph name="commaaccentcomb" format="2">
  <advance width="253"/>
  <unicode hex="0326"/>
  <anchor x="137" y="0" name="_bottom"/>
  <outline>
    <contour>
      <point x="229" y="-69" type="line"/>
      <point x="48" y="-69" type="line"/>
      <point x="73" y="-33" type="line"/>
      <point x="44" y="-286" type="line"/>
      <point x="25" y="-232" type="line"/>
      <point x="181" y="-254" type="line"/>
      <point x="96" y="-300" type="line"/>
      <point x="220" y="-47" type="line"/>
      <point x="220" y="-116" type="line"/>
      <point x="180" y="-33" type="line"/>
    </contour>
  </outline>
</glyph>
<glyph name="cedillacomb" format="2">
  <advance width="288"/>
  <unicode hex="0327"/>
  <anchor x="130" y="0" name="_bottom"/>
  <outline>
    <contour>
      <point x="59" y="-83" type="line"/>
      <point x="191" y="-113" type="line"/>
      <point x="164" y="-81" type="line"/>
      <point x="165" y="-157" type="line"/>
      <point x="179" y="-128" type="line"/>
      <point x="119" y="-154" type="line"/>
      <point x="155" y="-154" type="line"/>
      <point x="68" y="-107" type="line"/>
      <point x="99" y="-101" type="line"/>
      <point x="46" y="-185" type="line"/>
      <point x="38" y="-173" type="line"/>
      <point x="166" y="-224" type="line"/>
      <point x="131" y="-219" type="line"/>
      <point x="239" y="-163" type="line"/>
      <point x="222" y="-209" type="line"/>
      <point x="242" y="-49" type="line"/>
      <point x="245" y="-90" type="line"/>
      <point x="179" y="-21" type="line"/>
      <point x="216" y="-41" type="line"/>
      <point x="128" y="-38" type="line"/>
      <point x="150" y="-76" type="line"/>
      <point x="183" y="67" type="line"/>
      <point x="199" y="46" type="line"/>
      <point x="58" y="46" type="line"/>
      <point x="101" y="69" type="line"/>
      <point x="81" y="-114" type="line"/>
    </contour>
  </outline>
</glyph>
<glyph name="ogonekcomb" format="2">
  <advance width="267"/>
  <unicode hex="0328"/>
  <anchor x="113" y="0" name="_ogonek"/>
  <outline>
    <contour>
      <point x="195" y="28" type="line"/>
      <point x="72" y="82" type="line"/>
      <point x="137" y="96" type="line"/>
      <point x="38" y="-58" type="line"/>
      <point x="49" y="-25" type="line"/>
      <point x="56" y="-187" type="line"/>
      <point x="33" y="-144" type="line"/>
      <point x="140" y="-208" type="line"/>
      <point x="104" y="-213" type="line"/>
      <point x="233" y="-181" type="line"/>
      <point x="221" y="-196" type="line"/>
      <point x="189" y="-102" type="line"/>
      <point x="213" y="-108" type="line"/>
      <point x="117" y="-139" type="line"/>
      <point x="155" y="-135" type="line"/>
      <point x="96" y="-100" type="line"/>
      <point x="121" y="-130" type="line"/>
      <point x="127" y="-25" type="line"/>
      <point x="107" y="-84" type="line"/>
      <point x="186" y="79" type="line"/>
    </contour>
  </outline>
</glyph>
<glyph name="Germandbls" format="2">
  <advance width="706"/>
  <unicode hex="1E9E"/>
  <outline>
    <contour>
      <point x="224" y="819" type="line"/>
      <point x="414" y="856" type="line"/>
      <point x="-62" y="626" type="line"/>
      <point x="95" y="746" type="line"/>
      <point x="21" y="-83" type="line"/>
      <point x="0" y="0" type="line"/>
      <point x="280" y="0" type="line"/>
      <point x="237" y="-83" type="line"/>
      <point x="269" y="684" type="line"/>
      <point x="217" y="580" type="line"/>
      <point x="340" y="649" type="line"/>
      <point x="248" y="629" type="line"/>
      <point x="575" y="600" type="line"/>
      <point x="482" y="678" type="line"/>
      <point x="473" y="464" type="line"/>
      <point x="513" y="517" type="line"/>
      <point x="316" y="374" type="line"/>
      <point x="366" y="484" type="line"/>
      <point x="350" y="295" type="line"/>
      <point x="302" y="358" type="line"/>
      <point x="577" y="266" type="line"/>
      <point x="480" y="396" type="line"/>
      <point x="462" y="115" type="line"/>
      <point x="500" y="189" type="line"/>
      <point x="382" y="128" type="line"/>
      <point x="512" y="159" type="line"/>
      <point x="296" y="197" type="line"/>
      <point x="334" y="295" type="line"/>
      <point x="268" y="-83" type="line"/>
      <point x="229" y="3" type="line"/>
      <point x="512" y="-8" type="line"/>
      <point x="413" y="-28" type="line"/>
      <point x="778" y="137" type="line"/>
      <point x="635" y="-24" type="line"/>
      <point x="689" y="501" type="line"/>
      <point x="762" y="344" type="line"/>
      <point x="507" y="437" type="line"/>
      <point x="499" y="415" type="line"/>
      <point x="738" y="578" type="line"/>
      <point x="626" y="446" type="line"/>
      <point x="687" y="783" type="line"/>
      <point x="783" y="718" type="line"/>
    </contour>
  </outline>
</glyph>
<glyph name="emdash" format="2">
  <advance width="761"/>
  <unicode hex="2014"/>
  <outline>
    <contour>
      <point x="31" y="212" type="line"/>
      <point x="-46" y="278" type="line"/>
      <point x="437" y="284" type="line"/>
      <point x="807" y="280" type="line"/>
      <point x="715" y="213" type="line"/>
      <point x="729" y="423" type="line"/>
      <point x="815" y="374" type="line"/>
      <point x="391" y="372" type="line"/>
      <point x="-58" y="378" type="line"/>
      <point x="45" y="423" type="line"/>
    </contour>
  </outline>
</glyph>
<glyph name="quoteleft" format="2">
  <advance width="238"/>
  <unicode hex="2018"/>
  <outline>
    <contour>
      <point x="86" y="740" type="line"/>
      <point x="133" y="716" type="line"/>
      <point x="143" y="872" type="line"/>
      <point x="168" y="810" type="line"/>
      <point x="52" y="825" type="line"/>
      <point x="94" y="879" type="line"/>
      <point x="20" y="570" type="line"/>
      <point x="-20" y="665" type="line"/>
      <point x="84" y="530" type="line"/>
      <point x="28" y="591" type="line"/>
      <point x="244" y="592" type="line"/>
      <point x="195" y="561" type="line"/>
      <point x="205" y="784" type="line"/>
      <point x="242" y="744" type="line"/>
    </contour>
  </outline>
</glyph>
<glyph name="quoteright" format="2">
  <advance width="250"/>
  <unicode hex="2019"/>
  <outline>
    <contour>
      <point x="159" y="632" type="line"/>
      <point x="109" y="658" type="line"/>
      <point x="99" y="491" type="line"/>
      <point x="72" y="557" type="line"/>
      <point x="196" y="541" type="line"/>
      <point x="151" y="484" type="line"/>
      <point x="230" y="813" type="line"/>
      <point x="272" y="712" type="line"/>
      <point x="162" y="856" type="line"/>
      <point x="221" y="791" type="line"/>
      <point x="-9" y="790" type="line"/>
      <point x="43" y="823" type="line"/>
      <point x="33" y="585" type="line"/>
      <point x="-7" y="628" type="line"/>
    </contour>
  </outline>
</glyph>
<glyph name="bullet" format="2">
  <advance width="234"/>
  <unicode hex="2022"/>
  <outline>
    <contour>
      <point x="37" y="385" type="line"/>
      <point x="35" y="232" type="line"/>
      <point x="10" y="266" type="line"/>
      <point x="145" y="210" type="line"/>
      <point x="112" y="208" type="line"/>
      <point x="219" y="262" type="line"/>
      <point x="189" y="228" type="line"/>
      <point x="201" y="384" type="line"/>
      <point x="219" y="349" type="line"/>
      <point x="87" y="406" type="line"/>
      <point x="129" y="408" type="line"/>
      <point x="10" y="348" type="line"/>
    </contour>
  </outline>
</glyph>
<glyph name="guilsinglleft" format="2">
  <advance width="307"/>
  <unicode hex="2039"/>
  <outline>
    <contour>
      <point x="-66" y="384" type="line"/>
      <point x="246" y="44" type="line"/>
      <point x="178" y="50" type="line"/>
      <point x="299" y="177" type="line"/>
      <point x="299" y="119" type="line"/>
      <point x="93" y="323" type="line"/>
      <point x="93" y="265" type="line"/>
      <point x="306" y="488" type="line"/>
      <point x="304" y="424" type="line"/>
      <point x="174" y="542" type="line"/>
      <point x="236" y="546" type="line"/>
      <point x="-64" y="192" type="line"/>
    </contour>
  </outline>
</glyph>
<glyph name="trademark" format="2">
  <advance width="346"/>
  <unicode hex="2122"/>
  <outline>
    <contour>
      <point x="34" y="681" type="line"/>
      <point x="47" y="706" type="line"/>
      <point x="33" y="545" type="line"/>
      <point x="23" y="563" type="line"/>
      <point x="105" y="563" type="line"/>
      <point x="89" y="545" type="line"/>
      <point x="100" y="733" type="line"/>
      <point x="97" y="720" type="line"/>
      <point x="55" y="696" type="line"/>
      <point x="62" y="710" type="line"/>
      <point x="65" y="687" type="line"/>
      <point x="72" y="697" type="line"/>
      <point x="56" y="691" type="line"/>
    </contour>
    <contour>
      <point x="159" y="742" type="line"/>
      <point x="1" y="742" type="line"/>
      <point x="18" y="751" type="line"/>
      <point x="13" y="685" type="line"/>
      <point x="-6" y="692" type="line"/>
      <point x="77" y="695" type="line"/>
      <point x="154" y="695" type="line"/>
      <point x="135" y="687" type="line"/>
      <point x="139" y="754" type="line"/>
    </contour>
    <contour>
      <point x="270" y="742" type="line"/>
      <point x="282" y="746" type="line"/>
      <point x="237" y="653" type="line"/>
      <point x="253" y="653" type="line"/>
      <point x="218" y="746" type="line"/>
      <point x="232" y="742" type="line"/>
      <point x="138" y="742" type="line"/>
      <point x="146" y="753" type="line"/>
      <point x="142" y="686" type="line"/>
      <point x="123" y="695" type="line"/>
      <point x="173" y="695" type="line"/>
      <point x="162" y="720" type="line"/>
      <point x="146" y="545" type="line"/>
      <point x="131" y="563" type="line"/>
      <point x="213" y="563" type="line"/>
      <point x="203" y="545" type="line"/>
      <point x="208" y="681" type="line"/>
      <point x="202" y="669" type="line"/>
      <point x="215" y="669" type="line"/>
      <point x="207" y="674" type="line"/>
      <point x="212" y="658" type="line"/>
      <point x="241" y="586" type="line"/>
      <point x="224" y="606" type="line"/>
      <point x="257" y="606" type="line"/>
      <point x="235" y="586" type="line"/>
      <point x="273" y="658" type="line"/>
      <point x="282" y="676" type="line"/>
      <point x="273" y="669" type="line"/>
      <point x="286" y="669" type="line"/>
      <point x="280" y="681" type="line"/>
      <point x="267" y="545" type="line"/>
      <point x="257" y="563" type="line"/>
      <point x="339" y="563" type="line"/>
      <point x="323" y="545" type="line"/>
      <point x="332" y="749" type="line"/>
      <point x="334" y="742" type="line"/>
    </contour>
  </outline>
</glyph>
<glyph name=".notdef" format="2">
  <advance width="698"/>
  <outline>
    <contour>
      <point x="128" y="731" type="line"/>
      <point x="588" y="731" type="line"/>
      <point x="542" y="748" type="line"/>
      <point x="536" y="126" type="line"/>
      <point x="546" y="533" type="line"/>
      <point x="526" y="-35" type="line"/>
      <point x="570" y="-14" type="line"/>
      <point x="110" y="-14" type="line"/>
      <point x="156" y="-31" type="line"/>
      <point x="162" y="591" type="line"/>
      <point x="152" y="184" type="line"/>
      <point x="172" y="752" type="line"/>
    </contour>
    <contour>
      <point x="694" y="820" type="line"/>
      <point x="2" y="820" type="line"/>
      <point x="67" y="894" type="line"/>
      <point x="60" y="184" type="line"/>
      <point x="70" y="591" type="line"/>
      <point x="49" y="-146" type="line"/>
      <point x="4" y="-103" type="line"/>
      <point x="696" y="-103" type="line"/>
      <point x="631" y="-177" type="line"/>
      <point x="638" y="533" type="line"/>
      <point x="628" y="126" type="line"/>
      <point x="649" y="863" type="line"/>
    </contour>
    <contour>
      <point x="380" y="343" type="line"/>
      <point x="366" y="223" type="line"/>
      <point x="349" y="239" type="line"/>
      <point x="480" y="242" type="line"/>
      <point x="455" y="226" type="line"/>
      <point x="460" y="341" type="line"/>
      <point x="479" y="318" type="line"/>
      <point x="365" y="320" type="line"/>
    </contour>
    <contour>
      <point x="240" y="343" type="line"/>
      <point x="226" y="223" type="line"/>
      <point x="209" y="239" type="line"/>
      <point x="340" y="242" type="line"/>
      <point x="315" y="226" type="line"/>
      <point x="320" y="341" type="line"/>
      <point x="339" y="318" type="line"/>
      <point x="225" y="320" type="line"/>
    </contour>
    <contour>
      <point x="388" y="477" type="line"/>
      <point x="430" y="461" type="line"/>
      <point x="281" y="462" type="line"/>
      <point x="318" y="477" type="line"/>
      <point x="189" y="399" type="line"/>
      <point x="177" y="449" type="line"/>
      <point x="251" y="340" type="line"/>
      <point x="220" y="348" type="line"/>
      <point x="315" y="418" type="line"/>
      <point x="281" y="413" type="line"/>
      <point x="428" y="409" type="line"/>
      <point x="387" y="422" type="line"/>
      <point x="481" y="345" type="line"/>
      <point x="448" y="341" type="line"/>
      <point x="532" y="446" type="line"/>
      <point x="513" y="395" type="line"/>
    </contour>
  </outline>
</glyph>
<glyph name="dieresiscomb.alt" format="2">
  <advance width="468"/>
  <anchor x="236" y="600" name="_top"/>
  <outline>
    <contour>
      <point x="190" y="633" type="line"/>
      <point x="222" y="861" type="line"/>
      <point x="255" y="830" type="line"/>
      <point x="6" y="824" type="line"/>
      <point x="58" y="856" type="line"/>
      <point x="48" y="637" type="line"/>
      <point x="8" y="680" type="line"/>
      <point x="225" y="676" type="line"/>
    </contour>
    <contour>
      <point x="390" y="633" type="line"/>
      <point x="422" y="861" type="line"/>
      <point x="455" y="830" type="line"/>
      <point x="206" y="824" type="line"/>
      <point x="258" y="856" type="line"/>
      <point x="248" y="637" type="line"/>
      <point x="208" y="680" type="line"/>
      <point x="425" y="676" type="line"/>
    </contour>
  </outline>
</glyph>
<glyph name="ogonekcomb.alt" format="2">
  <advance width="272"/>
  <anchor x="142" y="0" name="_ogonek"/>
  <outline>
    <contour>
      <point x="226" y="-192" type="line"/>
      <point x="195" y="-99" type="line"/>
      <point x="219" y="-104" type="line"/>
      <point x="117" y="-139" type="line"/>
      <point x="159" y="-135" type="line"/>
      <point x="100" y="-100" type="line"/>
      <point x="116" y="-129" type="line"/>
      <point x="120" y="6" type="line"/>
      <point x="103" y="-70" type="line"/>
      <point x="222" y="36" type="line"/>
      <point x="207" y="6" type="line"/>
      <point x="130" y="65" type="line"/>
      <point x="86" y="22" type="line"/>
      <point x="114" y="-36" type="line"/>
      <point x="125" y="11" type="line"/>
      <point x="42" y="-40" type="line"/>
      <point x="50" y="14" type="line"/>
      <point x="50" y="-186" type="line"/>
      <point x="37" y="-144" type="line"/>
      <point x="144" y="-208" type="line"/>
      <point x="104" y="-213" type="line"/>
      <point x="239" y="-177" type="line"/>
    </contour>
  </outline>
</glyph>
